<svg width="24" height="24" viewBox="0 0 24 24" fill="none" xmlns="http://www.w3.org/2000/svg">
<g clip-path="url(#clip0_797_1351)">
<rect width="24" height="24" rx="12" fill="#820000"/>
<path d="M19.5344 10.4406L19.5589 10.4588C19.8267 10.6585 19.7981 10.7948 19.7978 10.7958L19.7957 10.8036L19.8493 10.8977L19.854 10.9006C20.0061 10.9898 20.0279 11.2828 20.0282 11.2856L20.0303 11.3174L20.6285 10.9781L20.6132 10.9146L20.6241 10.9084L20.6251 10.8982C20.6514 10.6419 20.4639 10.5363 20.4145 10.5134C20.42 10.4573 20.4242 10.2451 20.1922 10.1364L20.1829 10.132L20.1639 10.1427L20.1254 10.105L19.5342 10.4401L19.5344 10.4406ZM20.5828 10.9586L20.0648 11.2521C20.0547 11.1707 20.0154 10.9536 19.8789 10.8691L19.8659 10.846L19.8753 10.8408C20.102 10.9409 20.0703 11.1767 20.0687 11.1868L20.0628 11.2274L20.5776 10.9357L20.583 10.9586H20.5828ZM20.5864 10.8845L20.1101 11.1543C20.1103 11.0789 20.0908 10.911 19.9218 10.8192L20.3974 10.5496C20.4377 10.5675 20.6046 10.6559 20.5864 10.8845ZM20.1847 10.1775C20.3901 10.2792 20.3802 10.4679 20.375 10.5116L19.8995 10.7812C19.9075 10.5891 19.7736 10.4859 19.7086 10.4474L20.185 10.1775H20.1847ZM19.6215 10.4508L19.6592 10.4664C19.6686 10.4703 19.8873 10.5641 19.8566 10.8101L19.848 10.815L19.8381 10.7974C19.8423 10.7623 19.8399 10.6276 19.6072 10.4453L20.1194 10.1549L20.1283 10.1635L19.6215 10.4508Z" fill="white"/>
<path d="M11.165 20.0425C11.2313 20.0425 11.2878 20.0188 11.3346 19.972C11.3814 19.9252 11.4048 19.8685 11.4045 19.8022V19.7336C11.4045 19.6673 11.3808 19.6109 11.334 19.5641C11.2872 19.5173 11.2306 19.4939 11.1643 19.4941C11.098 19.4941 11.0415 19.5178 10.9947 19.5646C10.9479 19.6114 10.9245 19.6681 10.9248 19.7344H11.0618C11.0618 19.7058 11.0717 19.6813 11.0917 19.6613C11.1117 19.6413 11.1359 19.6312 11.1645 19.6312C11.1931 19.6312 11.2173 19.641 11.2373 19.6611C11.2573 19.6811 11.2675 19.7053 11.2675 19.7339V19.8025C11.2675 19.8311 11.2576 19.8553 11.2376 19.8753C11.2176 19.8953 11.1934 19.9055 11.1648 19.9055C11.0985 19.9055 11.0421 19.9291 10.9953 19.9759C10.9485 20.0227 10.9251 20.0794 10.9253 20.1457V20.317L11.371 20.3165V20.1795L11.0623 20.18V20.1457C11.0623 20.1171 11.0722 20.0929 11.0922 20.0729C11.1123 20.0529 11.1364 20.0427 11.165 20.0427V20.0425Z" fill="white"/>
<path d="M12.1747 19.6136C12.0566 19.5223 11.9937 19.6164 11.8975 19.6185C11.9037 19.5803 11.93 19.4079 11.9258 19.2758C11.9365 19.2883 11.9511 19.301 11.9708 19.313L12.1219 19.379C12.072 19.2301 12.0083 19.1817 11.9628 19.1671L11.8983 19.1128L11.8879 19.125C11.8866 19.1235 11.8855 19.1216 11.8842 19.1203L11.8265 19.1786C11.8265 19.1786 11.8294 19.1817 11.8328 19.1918C11.8606 19.275 11.8315 19.5096 11.8166 19.6026C11.748 19.5779 11.6874 19.541 11.5928 19.6141C11.5031 19.6835 11.4724 19.7914 11.4727 19.905C11.4729 20.0186 11.513 20.1154 11.5936 20.1954C11.6739 20.2758 11.7709 20.3158 11.8845 20.3156C11.9979 20.3156 12.0948 20.2753 12.1749 20.1947C12.2553 20.1143 12.2953 20.0173 12.295 19.9037C12.2948 19.7901 12.2641 19.6827 12.1741 19.6133L12.1747 19.6136ZM12.0785 20.0982C12.0252 20.1518 11.9604 20.1785 11.8848 20.1788C11.8091 20.1788 11.7444 20.1523 11.6908 20.0987C11.6372 20.0454 11.6105 19.9807 11.6102 19.905C11.6102 19.8294 11.6367 19.7646 11.6903 19.7111C11.7438 19.6575 11.8086 19.7189 11.8845 19.7189C11.9602 19.7189 12.0246 19.6572 12.0782 19.7105C12.1318 19.7641 12.1585 19.8286 12.1588 19.9042C12.1588 19.9799 12.1323 20.0446 12.0787 20.0982H12.0785Z" fill="white"/>
<path d="M12.6035 20.0405C12.6698 20.0405 12.7262 20.0169 12.773 19.9701C12.8198 19.9233 12.8432 19.8666 12.843 19.8003V19.7317C12.843 19.6654 12.8193 19.6089 12.7725 19.5621C12.7257 19.5153 12.669 19.4919 12.6027 19.4922C12.5364 19.4922 12.48 19.5159 12.4332 19.5627C12.3864 19.6095 12.363 19.6661 12.3633 19.7324H12.5003C12.5003 19.7038 12.5102 19.6794 12.5302 19.6594C12.5502 19.6393 12.5744 19.6292 12.603 19.6292C12.6316 19.6292 12.6558 19.6391 12.6758 19.6591C12.6958 19.6791 12.706 19.7033 12.706 19.7319V19.8006C12.706 19.8292 12.6961 19.8533 12.6761 19.8734C12.656 19.8934 12.6319 19.9035 12.6033 19.9035C12.537 19.9035 12.4805 19.9272 12.4337 19.974C12.3869 20.0208 12.3635 20.0774 12.3638 20.1437V20.3151L12.8094 20.3146V20.1776L12.5008 20.1781V20.1437C12.5008 20.1151 12.5107 20.091 12.5307 20.0709C12.5507 20.0509 12.5749 20.0408 12.6035 20.0408V20.0405Z" fill="white"/>
<path d="M13.1524 20.04C13.2187 20.04 13.2751 20.0164 13.3219 19.9696C13.3687 19.9228 13.3921 19.8661 13.3918 19.7998V19.7312C13.3918 19.6649 13.3682 19.6084 13.3214 19.5616C13.2746 19.5148 13.2179 19.4914 13.1516 19.4917C13.0853 19.4917 13.0289 19.5154 12.9821 19.5622C12.9353 19.609 12.9119 19.6656 12.9121 19.7319H13.0491C13.0491 19.7033 13.059 19.6789 13.079 19.6589C13.0991 19.6389 13.1232 19.6287 13.1518 19.6287C13.1804 19.6287 13.2046 19.6386 13.2246 19.6586C13.2447 19.6786 13.2548 19.7028 13.2548 19.7314V19.8001C13.2548 19.8287 13.2449 19.8528 13.2249 19.8729C13.2049 19.8929 13.1807 19.903 13.1521 19.903C13.0858 19.903 13.0294 19.9267 12.9826 19.9735C12.9358 20.0203 12.9124 20.077 12.9126 20.1433V20.3146L13.3583 20.3141V20.1771L13.0497 20.1776V20.1433C13.0497 20.1147 13.0595 20.0905 13.0796 20.0705C13.0996 20.0504 13.1238 20.0403 13.1524 20.0403V20.04Z" fill="white"/>
<path d="M16.9333 3.45508H7.06631L2.13281 12.0002L7.06631 20.5454H16.9333L21.8668 12.0002L16.9333 3.45508ZM16.8577 20.4144H7.14171L2.28387 12.0002L7.14171 3.58612H16.8577L21.7155 12.0002L16.8577 20.4144Z" fill="white"/>
<path d="M3.74242 11.5317L3.25284 11.2491L3.82302 11.3924L3.8498 11.3456L3.8901 11.2759L3.89166 11.2733L3.48424 10.8523L3.972 11.1339L4.01698 11.0562L3.47592 10.7437L3.43978 10.8058L3.43094 10.8214L3.39818 10.8781L3.7484 11.241L3.25778 11.1173L3.19954 11.2182L3.1907 11.2338L3.1543 11.2969L3.69692 11.6102L3.74242 11.5317Z" fill="white"/>
<path d="M4.25193 10.6495L4.18927 10.6328L4.05667 10.8624L3.84529 10.7402L3.95033 10.5582L3.91939 10.5208L3.80577 10.7176L3.62221 10.6115L3.75481 10.3819L3.71009 10.3364L3.56891 10.5808L3.53381 10.6414L3.50391 10.6931L4.04601 11.0059L4.25193 10.6495Z" fill="white"/>
<path d="M4.11773 10.4202C4.15933 10.4538 4.18767 10.4774 4.20301 10.4912C4.22953 10.5146 4.24955 10.5352 4.26281 10.5531C4.27607 10.571 4.28751 10.59 4.29713 10.61C4.30649 10.595 4.31351 10.5812 4.31819 10.5679C4.32287 10.5549 4.32547 10.5404 4.32625 10.5245C4.32703 10.5086 4.32391 10.492 4.31715 10.4748C4.31039 10.4577 4.29713 10.441 4.27815 10.4249C4.25631 10.4072 4.22511 10.3823 4.18455 10.35C4.14399 10.3181 4.10187 10.285 4.05819 10.2515C4.01451 10.218 3.96173 10.1774 3.89933 10.1298L3.97083 10.0061L4.45963 10.2882L4.52437 10.1758L3.98227 9.86279L3.97603 9.87345L3.91727 9.97511L3.84629 10.0981L3.80703 10.1662L3.80469 10.1704C3.87567 10.2265 3.93521 10.2739 3.98305 10.3121C4.03089 10.3503 4.07561 10.3862 4.11721 10.4197L4.11773 10.4202Z" fill="white"/>
<path d="M4.57664 10.088L4.61876 10.0149L4.32886 9.55345L4.74616 9.79447L4.8109 9.68215L4.26984 9.36963L4.2428 9.41643L4.20484 9.48195L4.2012 9.48871L4.48096 9.93539L4.0777 9.70269L4.0127 9.81501L4.55402 10.1273L4.57664 10.088Z" fill="white"/>
<path d="M4.43019 9.21508L4.91795 9.49666L4.98295 9.38434L4.49493 9.10276L4.56565 8.98056L4.52067 8.93506L4.44163 9.07182L4.37689 9.18414L4.29785 9.32116L4.35973 9.33728L4.43019 9.21508Z" fill="white"/>
<path d="M4.82021 9.03994C4.88365 9.0766 4.94085 9.09922 4.99155 9.1078C5.04225 9.11638 5.08827 9.1091 5.12935 9.0857C5.17043 9.0623 5.20787 9.02148 5.24167 8.96298C5.27573 8.90396 5.29263 8.85066 5.29211 8.8036C5.29159 8.75628 5.27495 8.71312 5.24193 8.6736C5.20891 8.63408 5.16081 8.59612 5.09737 8.55946C5.03445 8.52306 4.97751 8.50044 4.92681 8.4916C4.87585 8.4825 4.82983 8.48978 4.78875 8.51292C4.74767 8.53606 4.70997 8.5774 4.67591 8.63642C4.64211 8.69492 4.62547 8.7477 4.62599 8.79502C4.62651 8.84234 4.64315 8.88576 4.67617 8.9258C4.70919 8.96558 4.75729 9.0038 4.82021 9.0402V9.03994ZM4.70191 8.74328C4.71699 8.72222 4.73467 8.70168 4.75469 8.68192C4.78277 8.65228 4.81943 8.63304 4.86467 8.62394C4.90367 8.61796 4.96035 8.63122 5.03445 8.66294C5.07631 8.67906 5.11895 8.70012 5.16263 8.72612C5.20631 8.75212 5.23127 8.7763 5.23725 8.79866C5.23829 8.81608 5.23127 8.83532 5.21619 8.8569C5.20111 8.87848 5.18343 8.89876 5.16315 8.91748C5.13559 8.94738 5.09919 8.96688 5.05395 8.97572C5.01495 8.9817 4.95801 8.96896 4.88365 8.9375C4.84231 8.92086 4.79967 8.89954 4.75547 8.87328C4.71153 8.84728 4.68657 8.82284 4.68059 8.80048C4.67955 8.78306 4.68683 8.76382 4.70191 8.74276V8.74328Z" fill="white"/>
<path d="M5.46133 8.55458L4.95875 8.26442L5.06821 8.07514L5.57079 8.3653L5.63553 8.25298L5.09369 7.93994L5.05573 8.00572L5.02869 8.05226L4.91949 8.2418L4.88439 8.30238L4.85449 8.35412L5.39659 8.66716L5.46133 8.55458Z" fill="white"/>
<path d="M5.39273 8.04872C5.45617 8.08538 5.51337 8.10801 5.56407 8.11659C5.61477 8.12517 5.66079 8.11789 5.70187 8.09449C5.74295 8.07109 5.78039 8.03027 5.81419 7.97177C5.84825 7.91275 5.86515 7.85944 5.86463 7.81238C5.86411 7.76532 5.84747 7.7219 5.81445 7.68238C5.78143 7.64286 5.73333 7.60491 5.66989 7.56825C5.60697 7.53185 5.55003 7.50922 5.49907 7.50038C5.44811 7.49128 5.40209 7.49857 5.36101 7.52171C5.31993 7.54485 5.28223 7.58619 5.24817 7.64521C5.21437 7.70371 5.19773 7.75649 5.19825 7.80381C5.19877 7.85113 5.21541 7.89455 5.24843 7.93459C5.28145 7.97437 5.32955 8.01259 5.39247 8.04899L5.39273 8.04872ZM5.27443 7.75181C5.28951 7.73075 5.30719 7.7102 5.32721 7.69044C5.35529 7.6608 5.39195 7.64157 5.43719 7.63247C5.47619 7.62649 5.53287 7.63975 5.60697 7.67147C5.64883 7.68759 5.69147 7.70865 5.73515 7.73465C5.77883 7.76065 5.80379 7.78483 5.80977 7.80719C5.81081 7.82461 5.80379 7.84385 5.78871 7.86543C5.77363 7.88701 5.75595 7.90728 5.73567 7.926C5.70811 7.9559 5.67171 7.97541 5.62647 7.98425C5.58747 7.99023 5.53053 7.97749 5.45617 7.94603C5.41483 7.92939 5.37219 7.90807 5.32799 7.88181C5.28405 7.85581 5.25909 7.83136 5.25311 7.809C5.25207 7.79158 5.25935 7.77234 5.27443 7.75128V7.75181Z" fill="white"/>
<path d="M5.80718 7.49396C5.84878 7.5275 5.87712 7.55116 5.89246 7.56494C5.91898 7.58834 5.939 7.60888 5.95226 7.62682C5.96552 7.64476 5.97696 7.66374 5.98658 7.68376C5.99594 7.66868 6.00296 7.6549 6.00764 7.64164C6.01232 7.62838 6.01492 7.61408 6.0157 7.59822C6.01648 7.58236 6.01336 7.56572 6.0066 7.54856C5.99984 7.5314 5.98658 7.51476 5.9676 7.49864C5.94576 7.48096 5.91456 7.456 5.874 7.42376C5.83344 7.39178 5.79132 7.35876 5.74764 7.32522C5.70396 7.29168 5.65118 7.25112 5.58878 7.20354L5.66028 7.07978L6.14908 7.36188L6.21382 7.24956L5.67172 6.93652L5.66548 6.94718L5.60672 7.04884L5.53574 7.17182L5.49648 7.23994L5.49414 7.2441C5.56512 7.30026 5.62466 7.34758 5.6725 7.3858C5.72034 7.42402 5.76506 7.4599 5.80666 7.49344L5.80718 7.49396Z" fill="white"/>
<path d="M6.29735 7.12568C6.31217 7.10384 6.32647 7.08174 6.34025 7.05912C6.35403 7.0365 6.36443 7.01648 6.37145 6.99958C6.38601 6.95408 6.37899 6.90832 6.35013 6.86204C6.32127 6.81602 6.28747 6.7817 6.24873 6.75934C6.22247 6.74426 6.19127 6.72944 6.15513 6.71514C6.11899 6.70084 6.08285 6.69512 6.04697 6.69798C6.01109 6.70084 5.97885 6.71852 5.95077 6.75128C5.93049 6.77884 5.92217 6.82226 5.92607 6.88128L5.76123 6.78612L5.70117 6.88804L6.24327 7.20108C6.26485 7.17274 6.28279 7.14752 6.29761 7.12594L6.29735 7.12568ZM5.96585 6.82122C5.97833 6.7986 5.99601 6.78768 6.01967 6.78872C6.04307 6.78976 6.06829 6.79704 6.09533 6.81004C6.12237 6.82304 6.14681 6.8363 6.16839 6.8493C6.17437 6.85268 6.18009 6.85606 6.18555 6.85918C6.20479 6.8701 6.22533 6.88778 6.24769 6.91144C6.27005 6.93536 6.28747 6.9598 6.29995 6.98554C6.31269 7.01102 6.31373 7.0326 6.30359 7.05002C6.29709 7.06146 6.28773 7.07264 6.27577 7.08304L5.94869 6.89402C5.94973 6.86698 5.95545 6.84254 5.96585 6.8207V6.82122Z" fill="white"/>
<path d="M6.19281 6.66127C6.25625 6.69793 6.31345 6.72055 6.36415 6.72913C6.41485 6.73771 6.46087 6.73043 6.50169 6.70755C6.54251 6.68467 6.58021 6.64359 6.61427 6.58457C6.66419 6.49825 6.67719 6.42415 6.65301 6.36201L6.64131 6.35967C6.63013 6.40049 6.61453 6.43611 6.59477 6.46601C6.57475 6.49617 6.55525 6.52035 6.53575 6.53907C6.50819 6.56897 6.47153 6.58847 6.42577 6.59705C6.38729 6.60329 6.33061 6.59055 6.25625 6.55935C6.21439 6.54245 6.17149 6.52087 6.12781 6.49513C6.08413 6.46913 6.05917 6.44495 6.05319 6.42259C6.05215 6.40517 6.05943 6.38619 6.07451 6.36487C6.08959 6.34381 6.10727 6.32327 6.12729 6.30351C6.14289 6.28921 6.16343 6.27543 6.18891 6.26191C6.21439 6.24865 6.23935 6.23981 6.26353 6.23565L6.21517 6.11475C6.15199 6.12697 6.09635 6.17481 6.04825 6.25801C6.01419 6.31703 5.99729 6.37007 5.99807 6.41713C5.99859 6.46419 6.01549 6.50761 6.04851 6.54739C6.08153 6.58717 6.12963 6.62539 6.19255 6.66153L6.19281 6.66127Z" fill="white"/>
<path d="M6.80144 6.23315L6.5482 6.08677C6.57784 6.08495 6.61346 6.08261 6.65506 6.07949C6.69666 6.07663 6.73592 6.07403 6.77232 6.07117C6.80872 6.06857 6.83316 6.06675 6.84538 6.06571C6.86696 6.06363 6.88594 6.05583 6.90206 6.04231C6.91818 6.02879 6.93196 6.01345 6.94288 5.99629C6.9538 5.97939 6.96472 5.95755 6.97564 5.93103C6.95406 5.93675 6.93508 5.94143 6.9187 5.94533C6.90232 5.94897 6.88542 5.95157 6.86774 5.95313C6.8511 5.95443 6.82094 5.95677 6.77726 5.95989C6.73384 5.96327 6.68938 5.96691 6.6444 5.97055C6.59916 5.97445 6.56536 5.97705 6.54248 5.97835L6.40416 5.66895L6.35398 5.75579L6.48632 6.05089L6.25934 5.91985L6.19434 6.03217L6.73644 6.34521L6.80118 6.23289L6.80144 6.23315Z" fill="white"/>
<path d="M7.02781 5.8424L7.06993 5.7696L6.77977 5.30784L7.19707 5.54886L7.26207 5.43654L6.72075 5.12402L6.69397 5.17082L6.65601 5.23634L6.65211 5.2431L6.93213 5.69004L6.52861 5.45708L6.46387 5.5694L7.00493 5.88192L7.02781 5.8424Z" fill="white"/>
<path d="M6.80073 4.86302C6.82907 4.82532 6.84779 4.78944 6.85715 4.75512C6.86651 4.7208 6.86859 4.68934 6.86391 4.66126L6.85091 4.65918C6.84649 4.68726 6.83193 4.7208 6.80749 4.7598C6.78305 4.7988 6.74379 4.83208 6.68945 4.85886L6.73235 4.93608C6.75471 4.91762 6.77759 4.89318 6.80073 4.86302Z" fill="white"/>
<path d="M6.81474 4.96197L6.75 5.07429L7.29106 5.38655L7.31368 5.34729L7.3558 5.27423L7.0659 4.81273L7.4832 5.05375L7.5482 4.94143L7.00688 4.62891L6.9801 4.67571L6.94214 4.74123L6.93824 4.74799L7.21826 5.19467L6.81474 4.96197Z" fill="white"/>
<path d="M8.19615 4.05143H8.42625L8.44315 3.98877H8.19615H8.12621H8.06641V4.61459H8.19615V4.05143Z" fill="white"/>
<path d="M8.61518 4.59331C8.656 4.61723 8.71008 4.62919 8.77768 4.62919C8.84528 4.62919 8.9004 4.61723 8.94096 4.59331C8.98178 4.56939 9.0109 4.53325 9.02858 4.48489C9.04626 4.43653 9.0551 4.37595 9.0551 4.30263C9.0551 4.22931 9.04626 4.16951 9.02858 4.12089C9.0109 4.07227 8.98178 4.03587 8.94096 4.01195C8.90014 3.98803 8.8458 3.97607 8.77768 3.97607C8.70956 3.97607 8.656 3.98803 8.61518 4.01195C8.57436 4.03587 8.54498 4.07227 8.52704 4.12089C8.5091 4.16951 8.5 4.23009 8.5 4.30263C8.5 4.37517 8.5091 4.43653 8.52704 4.48489C8.54498 4.53325 8.57436 4.56939 8.61518 4.59331ZM8.63754 4.06213C8.6521 4.05277 8.67238 4.04913 8.69812 4.05173C8.72412 4.05433 8.75038 4.05927 8.77768 4.06681C8.81746 4.07617 8.85256 4.09827 8.88272 4.13311C8.90742 4.16405 8.92432 4.21969 8.93394 4.29977C8.94096 4.34397 8.94408 4.39155 8.9433 4.44225C8.94278 4.49295 8.9342 4.52675 8.91782 4.54313C8.90326 4.55249 8.88298 4.55613 8.85672 4.55405C8.83046 4.55197 8.8042 4.54651 8.77768 4.53845C8.7379 4.52961 8.7028 4.50777 8.67264 4.47319C8.64794 4.44225 8.63078 4.38661 8.62064 4.30653C8.6144 4.26233 8.61154 4.21475 8.61206 4.16353C8.61258 4.11231 8.62116 4.07877 8.63754 4.06213Z" fill="white"/>
<path d="M9.22794 4.59188C9.26824 4.6158 9.32258 4.62776 9.3907 4.62776C9.49054 4.62776 9.561 4.60176 9.60286 4.55002L9.59896 4.53858C9.55788 4.54924 9.5194 4.55366 9.48352 4.55132C9.44764 4.54924 9.4167 4.5443 9.3907 4.5365C9.35092 4.52766 9.31582 4.50556 9.28566 4.4702C9.26096 4.44004 9.2438 4.38466 9.23366 4.30458C9.22742 4.25986 9.22456 4.21202 9.22508 4.16106C9.2256 4.11036 9.23418 4.07656 9.25056 4.06018C9.26512 4.05082 9.2854 4.04718 9.31114 4.04978C9.33714 4.05238 9.3634 4.05732 9.3907 4.06486C9.41098 4.0711 9.43308 4.08202 9.45752 4.09762C9.4817 4.11296 9.50198 4.13038 9.51758 4.1491L9.59792 4.04692C9.55554 3.9983 9.48638 3.97412 9.3907 3.97412C9.32258 3.97412 9.26824 3.98608 9.22794 4.01C9.18764 4.03392 9.15826 4.07032 9.14032 4.11894C9.12238 4.16756 9.11328 4.22814 9.11328 4.30068C9.11328 4.37322 9.12238 4.43458 9.14032 4.48294C9.15826 4.5313 9.18738 4.56744 9.22794 4.59136V4.59188Z" fill="white"/>
<path d="M9.71508 4.61459H9.81648L10.1724 3.98877H10.0892L9.94154 4.25007L9.79386 3.98877H9.65918L9.86562 4.34965L9.71508 4.61459Z" fill="white"/>
<path d="M10.2901 4.61459H10.722L10.742 4.66581H10.7836V4.56441H10.7428V3.98877H10.3876L10.2966 4.56441H10.2285V4.66581H10.2701L10.2899 4.61459H10.2901ZM10.4701 4.05039H10.6131V4.56441H10.3973L10.4701 4.05039Z" fill="white"/>
<path d="M10.9659 4.46636H11.158L11.2007 4.61508H11.3351L11.1562 3.98926H11.0189L10.8408 4.61508H10.9232L10.9659 4.46636ZM11.0662 4.13382L11.1487 4.4206H10.9849L11.0662 4.13382Z" fill="white"/>
<path d="M11.5213 4.30773H11.6235C11.6682 4.30773 11.7039 4.29941 11.7304 4.28303C11.7569 4.26665 11.7759 4.24585 11.7873 4.22063C11.7988 4.19541 11.8037 4.16915 11.8024 4.14211C11.8011 4.09609 11.7837 4.05917 11.7504 4.03135C11.7169 4.00353 11.6633 3.98975 11.5895 3.98975H11.3916V4.61453H11.5213V4.30773ZM11.5213 4.05137C11.5213 4.05137 11.5255 4.05137 11.5362 4.05137H11.5897C11.6149 4.05137 11.6368 4.06073 11.655 4.07971C11.6732 4.09869 11.681 4.12391 11.6776 4.15537C11.674 4.18709 11.6578 4.21257 11.6292 4.23259C11.6009 4.25261 11.5648 4.26249 11.5213 4.26249V4.05137Z" fill="white"/>
<path d="M11.976 4.59188C12.0163 4.6158 12.0706 4.62776 12.1387 4.62776C12.2386 4.62776 12.309 4.60176 12.3509 4.55002L12.347 4.53858C12.3059 4.54924 12.2674 4.55366 12.2316 4.55132C12.1957 4.54924 12.1647 4.5443 12.1387 4.5365C12.099 4.52766 12.0639 4.50556 12.0337 4.4702C12.009 4.44004 11.9918 4.38466 11.9817 4.30458C11.9755 4.25986 11.9726 4.21202 11.9731 4.16106C11.9736 4.11036 11.9822 4.07656 11.9986 4.06018C12.0132 4.05082 12.0334 4.04718 12.0592 4.04978C12.0852 4.05238 12.1114 4.05732 12.1387 4.06486C12.159 4.0711 12.1811 4.08202 12.2056 4.09762C12.2297 4.11296 12.25 4.13038 12.2656 4.1491L12.346 4.04692C12.3036 3.9983 12.2344 3.97412 12.1387 3.97412C12.0706 3.97412 12.0163 3.98608 11.976 4.01C11.9357 4.03392 11.9063 4.07032 11.8884 4.11894C11.8704 4.16756 11.8613 4.22814 11.8613 4.30068C11.8613 4.37322 11.8704 4.43458 11.8884 4.48294C11.9063 4.5313 11.9354 4.56744 11.976 4.59136V4.59188Z" fill="white"/>
<path d="M12.5673 4.05137V4.61453H12.697V4.05137H12.8379L12.8551 3.98975H12.697H12.5673H12.4092L12.4261 4.05137H12.5673Z" fill="white"/>
<path d="M13.1191 4.61453C13.2005 4.61453 13.2614 4.59919 13.3019 4.56825C13.3422 4.53731 13.3625 4.49649 13.3625 4.44605C13.3625 4.41251 13.3539 4.38053 13.337 4.34985C13.3201 4.31917 13.2926 4.29577 13.2546 4.27939C13.2793 4.26353 13.297 4.24351 13.3082 4.21881C13.3193 4.19411 13.324 4.16863 13.323 4.14211C13.3217 4.09609 13.3043 4.05917 13.2705 4.03135C13.2367 4.00353 13.1828 3.98975 13.109 3.98975H12.9111V4.61453H13.1194H13.1191ZM13.0406 4.05137C13.0406 4.05137 13.045 4.05137 13.0557 4.05137H13.1095C13.1347 4.05137 13.1563 4.06073 13.1745 4.07971C13.1925 4.09869 13.2003 4.12391 13.1977 4.15537C13.1932 4.18709 13.1769 4.21257 13.1485 4.23259C13.1202 4.25261 13.084 4.26249 13.0406 4.26249V4.05137ZM13.0406 4.30877C13.0929 4.30877 13.1363 4.32021 13.1704 4.34335C13.2044 4.36649 13.2244 4.39587 13.2299 4.43201C13.233 4.46867 13.2237 4.49779 13.2021 4.51963C13.1802 4.54147 13.1542 4.55239 13.1241 4.55239H13.0406V4.30903V4.30877Z" fill="white"/>
<path d="M13.8156 4.55219H13.5504V4.30779H13.7607L13.7779 4.26255H13.5504V4.05039H13.8156L13.8327 3.98877H13.5504H13.4804H13.4209V4.61459H13.8327L13.8156 4.55219Z" fill="white"/>
<path d="M14.0184 4.30779H14.2371V4.61459H14.3679V3.98877H14.2371V4.26255H14.0184V3.98877H13.8887V4.61459H14.0184V4.30779Z" fill="white"/>
<path d="M14.5545 4.30779H14.7732V4.61459H14.904V3.98877H14.7732V4.26255H14.5545V3.98877H14.4248V4.61459H14.5545V4.30779Z" fill="white"/>
<path d="M15.1323 4.62785C15.1588 4.62837 15.1814 4.62733 15.2004 4.62395C15.2464 4.61459 15.2823 4.58573 15.3078 4.53789C15.3333 4.48979 15.3463 4.44325 15.3463 4.39775C15.3463 4.36733 15.3434 4.33327 15.3377 4.29505C15.332 4.25683 15.319 4.22277 15.2989 4.19287C15.2787 4.16297 15.2475 4.14425 15.2051 4.13645C15.1702 4.13203 15.1284 4.14633 15.0792 4.17909V3.98877H14.9609V4.61459C14.9963 4.61849 15.027 4.62135 15.0532 4.62369C15.0795 4.62577 15.1058 4.62733 15.1323 4.62785ZM15.0792 4.20561C15.1032 4.19365 15.1276 4.18663 15.152 4.18481C15.1773 4.18351 15.1955 4.19339 15.2064 4.21471C15.2173 4.23577 15.2238 4.26125 15.2259 4.29089C15.2277 4.32053 15.2285 4.34835 15.2277 4.37435V4.39333C15.2277 4.41595 15.223 4.44299 15.2139 4.47419C15.2048 4.50539 15.1921 4.53295 15.176 4.55661C15.1598 4.58027 15.1416 4.59223 15.1216 4.59223C15.1089 4.59223 15.0948 4.58937 15.079 4.58365V4.20587L15.0792 4.20561Z" fill="white"/>
<path d="M15.5304 3.98877H15.4121V4.61459H15.5304V3.98877Z" fill="white"/>
<path d="M15.7167 4.61453L15.9715 4.13275V4.61453H16.1012V3.98975H16.0471H15.9715H15.9639L15.7167 4.45567V3.98975H15.5869V4.61453H15.6324H15.7167Z" fill="white"/>
<path d="M15.9164 3.92413C15.9508 3.91503 15.9791 3.90125 16.0012 3.88305L15.9965 3.87083C15.97 3.88097 15.9336 3.88513 15.8876 3.88357C15.8416 3.88201 15.7932 3.86459 15.7428 3.83105L15.6973 3.90671C15.7243 3.91685 15.7568 3.92439 15.7948 3.92933C15.8416 3.93505 15.8821 3.93323 15.9164 3.92413Z" fill="white"/>
<path d="M17.216 5.01296L17.1744 4.94068L16.8741 4.94354L17.0267 4.68484L16.9593 4.56836L16.7503 4.92768L16.4453 4.92976L16.496 5.01738L17.216 5.01296Z" fill="white"/>
<path d="M16.7669 5.48711L17.0326 5.33371L17.1421 5.52325L16.8763 5.67665L16.9416 5.78975L17.4837 5.47671L17.4184 5.36361L17.1813 5.50037L17.0721 5.31109L17.309 5.17433L17.2442 5.06201L16.7021 5.37479L16.7669 5.48711Z" fill="white"/>
<path d="M16.9943 5.87961L17.0364 5.95267L17.5811 5.93213L17.1638 6.17315L17.2286 6.28547L17.7699 5.97295L17.7428 5.92615L17.7049 5.86063L17.7012 5.85413L17.1742 5.87311L17.5777 5.64015L17.5127 5.52783L16.9717 5.84035L16.9943 5.87961Z" fill="white"/>
<path d="M17.3213 6.44681L17.3606 6.51493C17.4014 6.58539 17.4451 6.63037 17.4921 6.64987C17.5392 6.66937 17.5844 6.66651 17.6281 6.64129C17.657 6.62465 17.6806 6.60125 17.6986 6.57109C17.7165 6.54093 17.7233 6.50557 17.7186 6.46449C17.7446 6.47801 17.7709 6.48321 17.7979 6.48061C17.8247 6.47775 17.8494 6.46943 17.8717 6.45487C17.911 6.43069 17.9341 6.39715 17.9414 6.35399C17.9487 6.31083 17.9336 6.25727 17.8967 6.19331L17.8626 6.13429L17.8494 6.11141L17.7979 6.02197L17.2568 6.33449L17.3216 6.44681H17.3213ZM17.8093 6.16523C17.8093 6.16523 17.8114 6.16913 17.8169 6.17823C17.8223 6.18759 17.8312 6.20319 17.8439 6.22503C17.8567 6.24687 17.8593 6.27027 17.8517 6.29549C17.8442 6.32071 17.8262 6.33995 17.7976 6.35347C17.768 6.36543 17.7376 6.36413 17.7061 6.34931C17.6747 6.33449 17.6481 6.30849 17.6263 6.27079L17.8091 6.16523H17.8093ZM17.5863 6.29393C17.6125 6.33917 17.624 6.38259 17.6211 6.42367C17.6182 6.46475 17.6026 6.49673 17.5743 6.51961C17.5441 6.54067 17.5142 6.54717 17.4846 6.53911C17.455 6.53105 17.4323 6.51415 17.4173 6.48789C17.4022 6.46163 17.3881 6.43771 17.3757 6.41561L17.5865 6.29393H17.5863Z" fill="white"/>
<path d="M17.7176 7.13265L17.7631 7.08663L17.6305 6.85705L17.8422 6.73485L17.9472 6.91685L17.9953 6.90879L17.8817 6.71197L18.0653 6.60615L18.1979 6.83573L18.2597 6.81961L18.1186 6.57521L18.0835 6.51463L18.0536 6.46289L17.5117 6.77593L17.7176 7.13265Z" fill="white"/>
<path d="M17.8099 7.29323L18.0756 7.13983C18.0836 7.15413 18.1008 7.18351 18.1268 7.22849C18.1492 7.26723 18.1741 7.29401 18.2017 7.30883C18.2292 7.32365 18.2565 7.32963 18.2841 7.32677C18.3117 7.32391 18.3369 7.31533 18.3598 7.30051C18.399 7.27633 18.4224 7.24279 18.4297 7.20015C18.437 7.15725 18.4222 7.10395 18.3852 7.03999L18.3512 6.98097L18.3374 6.95731L18.2862 6.86865L17.7451 7.18117L17.8099 7.29349V7.29323ZM18.2976 7.01139C18.2976 7.01139 18.2997 7.01503 18.3049 7.02413C18.3101 7.03323 18.3189 7.04857 18.3317 7.07041C18.3444 7.09225 18.347 7.11591 18.3397 7.14113C18.3325 7.16635 18.3145 7.18559 18.2854 7.19859C18.2563 7.21107 18.2259 7.21003 18.1944 7.19521C18.1629 7.18065 18.1364 7.15439 18.1146 7.11669L18.2974 7.01113L18.2976 7.01139Z" fill="white"/>
<path d="M18.2521 7.43183C18.1887 7.46849 18.1406 7.50671 18.1078 7.54623C18.075 7.58601 18.0581 7.62943 18.0576 7.67623C18.0571 7.72329 18.0737 7.77633 18.1078 7.83535C18.1577 7.92167 18.2154 7.97003 18.281 7.98017L18.289 7.97133C18.2591 7.94117 18.2362 7.90997 18.2201 7.87773C18.204 7.84549 18.1928 7.81637 18.1863 7.79011C18.1741 7.75111 18.1757 7.70977 18.1913 7.66583C18.2053 7.62943 18.2443 7.58679 18.3088 7.53791C18.3444 7.51009 18.3844 7.48357 18.4286 7.45887C18.4728 7.43391 18.5064 7.42455 18.5287 7.43053C18.5441 7.43833 18.5573 7.45419 18.568 7.47785C18.5787 7.50151 18.5878 7.52699 18.5948 7.55429C18.5995 7.57483 18.601 7.59953 18.6 7.62839C18.5987 7.65725 18.5938 7.68299 18.5854 7.70639L18.7141 7.72485C18.7352 7.66401 18.7217 7.59199 18.6736 7.50879C18.6395 7.44977 18.6021 7.40869 18.561 7.38581C18.5199 7.36293 18.4739 7.35565 18.4229 7.36449C18.372 7.37333 18.3148 7.39569 18.2521 7.43209V7.43183Z" fill="white"/>
<path d="M18.2755 8.09983L18.3177 8.17289L18.8624 8.15235L18.4451 8.39337L18.5098 8.50569L19.0511 8.19343L19.0241 8.14663L18.9861 8.08085L18.9825 8.07435L18.4555 8.09333L18.859 7.86037L18.794 7.74805L18.2529 8.06057L18.2755 8.09983Z" fill="white"/>
<path d="M19.1062 8.41112L18.6182 8.6927L18.6832 8.80502L19.1709 8.52344L19.2416 8.64538L19.3033 8.62952L19.2242 8.4925L19.1595 8.38018L19.0804 8.24316L19.0357 8.28892L19.1062 8.41112Z" fill="white"/>
<path d="M18.996 9.34675L19.0415 9.30073L18.9091 9.07115L19.1205 8.94921L19.2258 9.13121L19.2736 9.12315L19.16 8.92633L19.3436 8.82025L19.4762 9.04983L19.5381 9.03397L19.3969 8.78957L19.3618 8.72899L19.3321 8.67725L18.79 8.99003L18.996 9.34675Z" fill="white"/>
<path d="M19.5915 9.25168L19.1035 9.53352L19.1685 9.64584L19.6563 9.36426L19.727 9.4862L19.7886 9.47034L19.7096 9.33332L19.6448 9.221L19.5658 9.08398L19.5211 9.12974L19.5915 9.25168Z" fill="white"/>
<path d="M7.91161 19.0156L7.93059 19.0483H16.0691L20.1384 12L16.0881 4.98442L16.0691 4.95166H7.93059L3.86133 12L7.91161 19.0156ZM8.00599 5.0827H15.9934L19.9873 12L15.9934 18.9173H8.00599L4.01213 12L8.00599 5.0827Z" fill="white"/>
<path d="M20.7641 12.1997L16.4397 19.7069L14.1855 19.7413L14.1876 19.8801L16.5209 19.8447L20.8847 12.2691L20.7641 12.1997Z" fill="white"/>
<path d="M3.23001 12.1997L3.10938 12.2691L7.47348 19.8453L9.92111 19.8541L9.92164 19.7153L7.55408 19.7064L3.23001 12.1997Z" fill="white"/>
<path d="M14.2523 16.0649C13.6452 16.5582 13.6325 17.1393 13.6783 17.1088C13.9736 16.9128 14.1772 16.3416 14.1119 16.5795C13.9988 16.9359 13.7906 17.2594 13.8457 17.2214C14.5836 16.7352 14.2523 16.0649 14.2523 16.0649Z" fill="white"/>
<path d="M14.0333 17.4053C14.2777 17.7631 14.9792 18.0026 14.6872 17.9266C14.2499 17.794 13.851 17.545 13.8984 17.6118C14.5047 18.5057 15.3185 18.0899 15.3185 18.0899C14.7059 17.3562 13.9953 17.35 14.0333 17.4053Z" fill="white"/>
<path d="M14.8208 17.0129C15.1128 17.2661 15.7721 17.3134 15.5033 17.3142C15.0959 17.2991 14.6952 17.1746 14.7514 17.2214C15.477 17.855 16.0849 17.3119 16.0849 17.3119C15.3899 16.8179 14.7756 16.9736 14.8208 17.0129Z" fill="white"/>
<path d="M15.6413 16.5264C15.6413 16.5264 16.1389 16.4588 16.1977 16.5165C16.1977 16.5165 15.8436 16.607 15.5625 16.6296C15.4161 16.6413 16.043 17.1975 16.6579 16.4388C16.6363 16.3871 16.1876 16.014 15.6413 16.5264Z" fill="white"/>
<path d="M14.9491 15.7141C14.6816 15.9151 14.5994 16.23 14.5994 16.23C14.5755 16.3022 14.5835 16.6782 14.6444 16.7177C14.8103 16.6597 14.8334 16.2697 14.8334 16.2697C14.9611 16.4772 14.8784 16.7575 14.8784 16.7575C15.3235 16.237 14.9488 15.7139 14.9488 15.7139L14.9491 15.7141Z" fill="white"/>
<path d="M15.4065 16.1702C15.4065 16.1702 15.5386 15.9076 15.5274 15.625C15.5581 15.7064 15.6645 16.0012 15.6179 16.086C15.6179 16.086 15.9252 15.7498 15.5761 15.2529C15.5761 15.2529 15.1309 15.5982 15.4063 16.1702H15.4065Z" fill="white"/>
<path d="M16.1447 15.8273C16.4845 15.6747 16.5108 15.7907 16.5108 15.7907C16.2734 15.8731 16.1881 16.0535 16.1881 16.0535C16.809 16.1154 16.901 15.5569 16.901 15.5569C16.4476 15.4072 16.1361 15.8312 16.1447 15.8273Z" fill="white"/>
<path d="M16.1074 15.2153C16.1074 15.2153 16.3107 14.7697 15.7603 14.5708C15.7603 14.5708 15.7395 15.1178 15.9517 15.3617C15.9517 15.3617 16.0622 15.1654 15.9085 14.8745C15.9085 14.8745 16.0648 14.9075 16.1074 15.2153Z" fill="white"/>
<path d="M16.4103 15.1132C16.4977 15.0251 16.745 14.964 16.745 14.964C16.7122 15.049 16.5949 15.1088 16.5949 15.1088C16.44 15.2476 16.4558 15.3345 16.4558 15.3345C17.1188 15.2011 17.0143 14.6304 17.0143 14.6304C16.3828 14.823 16.4103 15.1129 16.4103 15.1129V15.1132Z" fill="white"/>
<path d="M16.6165 14.5358C16.6165 14.5358 17.1185 14.4664 16.9755 13.8525C16.9755 13.8525 16.6105 14.0192 16.5684 14.4084C16.5684 14.4084 16.7056 14.1895 16.8091 14.1999C16.8091 14.1999 16.8091 14.4511 16.6162 14.5358H16.6165Z" fill="white"/>
<path d="M16.3114 14.4387C16.3135 14.4496 16.3185 13.7944 15.7764 13.8768C15.7764 13.8768 15.8791 14.2751 16.1419 14.4875C16.1419 14.4875 16.1575 14.3718 16.0795 14.1901C16.0795 14.1901 16.2867 14.31 16.3114 14.4387Z" fill="white"/>
<path d="M16.4769 13.7556C16.4769 13.7556 16.5198 13.6292 16.6641 13.5068C16.6641 13.5068 16.7544 13.7343 16.6023 13.8515C16.6023 13.8515 17.0432 13.6529 16.7671 13.1797C16.7671 13.1797 16.4608 13.3333 16.4772 13.7556H16.4769Z" fill="white"/>
<path d="M15.9631 12.5781C15.9631 12.5781 15.7151 12.8446 16.2054 13.1738C16.2054 13.1738 16.2538 13.0615 16.1755 12.9515C16.1755 12.9515 16.3872 13.0349 16.3726 13.2458C16.3726 13.2458 16.7127 12.8628 15.9631 12.5781Z" fill="white"/>
<path d="M16.1731 13.7427C16.1731 13.7427 16.183 13.6249 15.9563 13.4702C15.9563 13.4702 16.1055 13.4775 16.2579 13.5924C16.2808 13.6098 16.2376 13.3475 15.7363 13.1582C15.7363 13.1582 15.6071 13.5253 16.1731 13.7424V13.7427Z" fill="white"/>
<path d="M9.74796 16.0649C9.74796 16.0649 9.41672 16.7355 10.1546 17.2214C10.2097 17.2594 10.0015 16.9359 9.88836 16.5795C9.8231 16.3416 10.0267 16.9128 10.322 17.1088C10.3681 17.1393 10.3551 16.5582 9.74796 16.0649Z" fill="white"/>
<path d="M9.31292 17.9263C9.02094 18.0022 9.72242 17.7627 9.96682 17.405C10.0048 17.3493 9.2942 17.3556 8.68164 18.0896C8.68164 18.0896 9.4957 18.5053 10.1018 17.6114C10.1491 17.5446 9.75024 17.7939 9.31292 17.9263Z" fill="white"/>
<path d="M8.49666 17.3142C8.22756 17.3134 8.88718 17.2661 9.17916 17.0129C9.22466 16.9736 8.61002 16.8179 7.91504 17.3119C7.91504 17.3119 8.52292 17.8553 9.24858 17.2214C9.30448 17.1746 8.90382 17.2991 8.49666 17.3142Z" fill="white"/>
<path d="M8.43718 16.6296C8.15612 16.607 7.802 16.5165 7.802 16.5165C7.86102 16.4588 8.3584 16.5264 8.3584 16.5264C7.81214 16.014 7.36338 16.3871 7.3418 16.4388C7.9567 17.1977 8.58356 16.6416 8.43718 16.6296Z" fill="white"/>
<path d="M9.35549 16.7184C9.41633 16.6787 9.42439 16.3027 9.40047 16.2307C9.40047 16.2307 9.31805 15.9158 9.05077 15.7148C9.05077 15.7148 8.67611 16.238 9.12123 16.7585C9.12123 16.7585 9.03855 16.4779 9.16621 16.2707C9.16621 16.2707 9.18935 16.6607 9.35523 16.7187L9.35549 16.7184Z" fill="white"/>
<path d="M8.59334 16.1702C8.86894 15.5982 8.42356 15.2529 8.42356 15.2529C8.07464 15.7498 8.3817 16.086 8.3817 16.086C8.33542 16.0012 8.4415 15.7061 8.47218 15.625C8.461 15.9076 8.59308 16.1702 8.59308 16.1702H8.59334Z" fill="white"/>
<path d="M7.81253 16.0535C7.81253 16.0535 7.72725 15.873 7.48987 15.7906C7.48987 15.7906 7.51613 15.6746 7.85595 15.8273C7.86453 15.8312 7.55331 15.4074 7.09961 15.5569C7.09961 15.5569 7.19165 16.1153 7.81253 16.0535Z" fill="white"/>
<path d="M8.04889 15.3612C8.26105 15.1174 8.24025 14.5703 8.24025 14.5703C7.68983 14.7692 7.89315 15.2149 7.89315 15.2149C7.93579 14.907 8.09205 14.874 8.09205 14.874C7.93839 15.1649 8.04889 15.3612 8.04889 15.3612Z" fill="white"/>
<path d="M7.54496 15.3347C7.54496 15.3347 7.56081 15.2478 7.40585 15.109C7.40585 15.109 7.28859 15.0489 7.25583 14.9642C7.25583 14.9642 7.5031 15.0253 7.59046 15.1134C7.59046 15.1134 7.61801 14.8235 6.98647 14.6309C6.98647 14.6309 6.88196 15.2016 7.54496 15.3349V15.3347Z" fill="white"/>
<path d="M7.383 14.5358C7.19034 14.4513 7.19008 14.1999 7.19008 14.1999C7.29356 14.1895 7.43084 14.4084 7.43084 14.4084C7.38872 14.0189 7.02368 13.8525 7.02368 13.8525C6.88068 14.4664 7.38274 14.5358 7.38274 14.5358H7.383Z" fill="white"/>
<path d="M7.85731 14.4876C8.12017 14.2754 8.22287 13.8768 8.22287 13.8768C7.68077 13.7942 7.68571 14.4496 7.68779 14.4387C7.71249 14.31 7.91971 14.1901 7.91971 14.1901C7.84197 14.3719 7.85731 14.4876 7.85731 14.4876Z" fill="white"/>
<path d="M7.52338 13.7556C7.5395 13.3333 7.23349 13.1797 7.23349 13.1797C6.95737 13.6529 7.39833 13.8515 7.39833 13.8515C7.24596 13.7343 7.33644 13.5068 7.33644 13.5068C7.48074 13.6295 7.52364 13.7556 7.52364 13.7556H7.52338Z" fill="white"/>
<path d="M7.62775 13.2458C7.61319 13.0349 7.82483 12.9515 7.82483 12.9515C7.74657 13.0615 7.79493 13.1738 7.79493 13.1738C8.28529 12.8444 8.03725 12.5781 8.03725 12.5781C7.28767 12.8628 7.62775 13.2458 7.62775 13.2458Z" fill="white"/>
<path d="M7.74202 13.5926C7.89438 13.4775 8.04362 13.4704 8.04362 13.4704C7.8169 13.6251 7.82678 13.7429 7.82678 13.7429C8.39306 13.5258 8.26358 13.1587 8.26358 13.1587C7.7623 13.348 7.71914 13.6101 7.74202 13.5929V13.5926Z" fill="white"/>
<path d="M11.3502 17.0439H10.8154L10.5479 17.5073L10.8154 17.9706H11.3502L11.6178 17.5073L11.3502 17.0439ZM11.2907 17.8674H10.8747L10.6667 17.507L10.8747 17.1466H11.2907L11.4987 17.507L11.2907 17.8674Z" fill="white"/>
<path d="M11.7783 17.73L11.5107 18.1933L11.7783 18.6566H12.3131L12.5806 18.1933L12.3131 17.73H11.7783ZM12.2538 18.5537H11.8378L11.6298 18.1933L11.8378 17.8329H12.2538L12.4618 18.1933L12.2538 18.5537Z" fill="white"/>
<path d="M12.7734 17.0439L12.5059 17.5073L12.7734 17.9706H13.3082L13.5758 17.5073L13.3082 17.0439H12.7734ZM13.2487 17.8674H12.8327L12.6247 17.507L12.8327 17.1466H13.2487L13.4567 17.507L13.2487 17.8674Z" fill="white"/>
<path d="M6.57135 10.8287C8.31023 12.2265 11.495 9.90105 11.495 9.90105L13.0953 8.97128C13.0953 8.97128 14.6997 8.07689 15.8994 8.25109C17.0993 8.42529 17.2919 8.94321 17.2919 8.94321C17.2919 8.94321 17.8481 9.85685 16.4084 10.3729C14.9686 10.889 13.6514 9.88493 13.6514 9.88493C13.6514 9.88493 14.3844 9.16005 15.6636 9.05761C15.6636 9.05761 15.4836 8.91175 14.0073 9.21361C14.0073 9.21361 13.3482 9.54563 12.483 9.80849C12.483 9.80849 13.9187 10.8667 14.505 10.9631C14.505 10.9631 15.9768 11.3789 17.1175 10.64C18.2581 9.90105 17.6697 8.90109 17.6697 8.90109C17.6697 8.90109 17.1076 7.81273 15.0151 8.00149C15.0151 8.00149 13.7401 8.22041 12.4851 9.02147C11.23 9.82253 10.7722 10.0716 10.7722 10.0716C10.7722 10.0716 8.32245 11.7301 7.00711 10.7843C5.69177 9.83839 6.83239 9.09947 6.83239 9.09947C6.83239 9.09947 8.37055 8.05531 10.1014 9.22011C10.1014 9.22011 9.36245 9.77027 9.01899 9.95695C8.67553 10.1436 8.15345 10.2201 8.15345 10.2201C8.15345 10.2201 9.08529 10.1881 9.59931 9.87869C10.1133 9.56955 10.6315 9.37662 10.6315 9.37662C10.6315 9.37662 10.975 9.18995 11.1796 9.21205C11.1796 9.21205 9.66561 7.57352 7.06925 8.36262C7.06925 8.36262 4.83221 9.43071 6.57109 10.8285L6.57135 10.8287Z" fill="white"/>
<path d="M12.0026 10.3018C10.8386 10.3018 9.92676 11.2437 9.92676 12.4462C9.92676 12.4964 10.0214 13.2268 10.2343 14.0491C10.5185 15.1461 10.8732 15.9029 11.2884 16.2989C11.481 16.4825 11.687 16.587 11.9028 16.6107L12.0437 17.1312L12.1765 16.5992C12.3661 16.562 12.5476 16.4622 12.7186 16.2997C13.7415 15.3263 14.079 12.472 14.079 12.4465C14.079 11.244 13.1671 10.302 12.0031 10.302L12.0026 10.3018ZM12.0328 16.444C12.0229 16.4445 12.013 16.4445 12.0031 16.4445C11.993 16.4445 11.9828 16.4445 11.9724 16.444C11.7839 16.437 11.6009 16.3533 11.4277 16.1947C10.452 15.3018 10.0994 12.4712 10.0981 12.4465C10.0981 11.3402 10.9345 10.4736 12.0023 10.4736C12.5897 10.4736 13.1066 10.736 13.4531 11.1561C13.2641 11.5412 12.6513 12.1727 11.3037 12.1595C11.3037 12.1595 13.0772 12.5916 13.8143 12.394C13.2589 12.732 11.9639 13.3484 10.9662 12.9938C10.9662 12.9938 12.5652 14.4602 13.6401 13.8222C13.1484 14.1862 12.2987 14.6469 11.5726 14.3835C11.5726 14.3835 12.6981 15.0301 13.3101 14.9589C13.3018 14.9807 13.2935 15.0023 13.2849 15.0239C12.9235 15.2558 12.345 15.5748 11.9849 15.5077C11.9849 15.5077 12.3429 15.9755 12.6196 16.1562C12.6094 16.1663 12.599 16.1765 12.5886 16.1861C12.4118 16.3507 12.2249 16.437 12.0328 16.4443V16.444Z" fill="white"/>
<path d="M10.7876 7.57319H10.8973C10.7467 7.81343 10.6557 8.07083 10.7223 8.30223C10.8154 8.62619 11.1942 8.82535 11.8481 8.89451L11.8603 8.89581L11.8725 8.89399C11.9261 8.90491 12.8486 8.75177 12.9809 8.19589C13.0264 8.00479 12.9721 7.79783 12.8195 7.57267H12.9513V6.76017L13.6104 6.59949L13.6509 6.78565C13.6538 6.83037 13.691 6.86599 13.7365 6.86599C13.782 6.86599 13.8223 6.82752 13.8223 6.7802C13.8223 6.7698 13.8205 6.75991 13.8168 6.75055L13.7752 6.55945L14.4143 6.40371L11.8965 6.08105L9.39941 6.40371L10.7881 6.74509V7.57293L10.7876 7.57319ZM12.7859 8.14961C12.704 8.49515 12.0974 8.69925 11.8567 8.69405C11.4706 8.65193 10.9989 8.53988 10.9147 8.24686C10.8588 8.0529 10.9716 7.80771 11.1417 7.57293H12.5693C12.7825 7.83449 12.8163 8.02221 12.7862 8.14961H12.7859ZM12.8416 7.46399H10.8965V6.77214L11.8959 7.01783L12.8418 6.78721V7.46399H12.8416ZM9.99195 6.43751L11.8959 6.19155L13.8158 6.43751L11.8959 6.90551L9.99169 6.43751H9.99195Z" fill="white"/>
<path d="M13.6963 6.87839C13.7199 7.37863 13.7717 7.30219 13.7829 7.30791L14.0236 7.19949C14.0161 7.07079 13.8258 6.84277 13.8258 6.84277C13.7829 6.91557 13.6963 6.87813 13.6963 6.87813V6.87839Z" fill="white"/>
</g>
<defs>
<clipPath id="clip0_797_1351">
<rect width="24" height="24" rx="12" fill="white"/>
</clipPath>
</defs>
</svg>
