<svg width="181" height="180" viewBox="0 0 181 180" fill="none" xmlns="http://www.w3.org/2000/svg">
<g opacity="0.06" clip-path="url(#clip0_1223_6874)">
<path d="M38.4086 160.949H34.6586V164.781H38.4086V160.949Z" fill="black"/>
<path d="M15.9086 157.117H12.1586V160.949H15.9086V157.117Z" fill="black"/>
<path d="M60.9086 151.369H57.1586V155.201H60.9086V151.369Z" fill="black"/>
<path d="M122.784 151.369H119.034V155.201H122.784V151.369Z" fill="black"/>
<path d="M150.909 155.201H147.159V159.033H150.909V155.201Z" fill="black"/>
<path d="M165.909 162.865H162.159V166.697H165.909V162.865Z" fill="black"/>
<path d="M177.158 174.361L142.023 170.583L136.947 174.041C136.882 174.086 136.816 174.126 136.747 174.16L132.997 176.076L131.319 172.649L134.964 170.786L137.993 168.723L130.284 164.781H117.935L110.984 171.884C110.634 172.244 110.155 172.445 109.659 172.445H105.909V168.613H108.882L114.644 162.725L107.784 157.117H94.6585V141.741C126.925 140.725 152.783 113.695 152.783 80.4746C120.275 80.4746 93.8241 106.899 92.8304 139.872H90.8598C89.8679 106.899 63.4173 80.4746 30.9085 80.4746C30.9085 113.695 56.7667 140.725 89.0335 141.741V157.117H74.0335L67.4729 162.48L71.3223 165.103C71.5941 165.289 71.8135 165.542 71.9598 165.841L73.3173 168.613H79.6585V172.445H72.1585C71.4479 172.445 70.7991 172.035 70.4804 171.386L68.8285 168.008L64.0904 164.781H51.5335L41.9879 168.962L47.0335 172.829L44.7835 175.894L37.8648 170.591L4.65854 174.361L4.60229 180.11H177.158V174.361ZM145.833 84.8681L148.484 87.5774L101.609 135.479L98.9579 132.77L145.833 84.8681ZM83.9879 135.51L40.8629 93.3563L43.456 90.5876L86.581 132.741L83.9879 135.51Z" fill="black"/>
<path d="M62.7836 22.7991V36.405C62.7836 37.0086 63.0611 37.5757 63.5336 37.9379L77.7836 48.8594V91.9707H81.5336V47.9014C81.5336 47.2978 81.2561 46.7307 80.7836 46.3685L66.5336 35.447V22.7991C70.8123 21.912 74.0336 18.0473 74.0336 13.4123C74.0336 8.12209 69.8354 3.83203 64.6586 3.83203C59.4817 3.83203 55.2836 8.12209 55.2836 13.4123C55.2836 18.0473 58.5048 21.912 62.7836 22.7991ZM64.6586 11.4963C65.6936 11.4963 66.5336 12.3547 66.5336 13.4123C66.5336 14.47 65.6936 15.3284 64.6586 15.3284C63.6236 15.3284 62.7836 14.47 62.7836 13.4123C62.7836 12.3547 63.6236 11.4963 64.6586 11.4963Z" fill="black"/>
<path d="M105.909 47.0104L116.324 39.9152C116.845 39.5589 117.159 38.961 117.159 38.3211V22.7991C121.437 21.912 124.659 18.0473 124.659 13.4123C124.659 8.12209 120.46 3.83203 115.284 3.83203C110.107 3.83203 105.909 8.12209 105.909 13.4123C105.909 18.0473 109.13 21.912 113.409 22.7991V37.296L102.993 44.3912C102.472 44.7475 102.159 45.3454 102.159 45.9853V91.9707H105.909V47.0104ZM115.284 11.4963C116.319 11.4963 117.159 12.3547 117.159 13.4123C117.159 14.47 116.319 15.3284 115.284 15.3284C114.249 15.3284 113.409 14.47 113.409 13.4123C113.409 12.3547 114.249 11.4963 115.284 11.4963Z" fill="black"/>
<path d="M132.159 47.7078V55.5655H117.159C116.124 55.5655 115.284 56.4239 115.284 57.4816V80.4743H119.034V59.3977H134.034C135.069 59.3977 135.909 58.5393 135.909 57.4816V47.7078C140.187 46.8206 143.409 42.956 143.409 38.321C143.409 33.0308 139.21 28.7407 134.034 28.7407C128.857 28.7407 124.659 33.0308 124.659 38.321C124.659 42.956 127.88 46.8206 132.159 47.7078ZM134.034 36.405C135.069 36.405 135.909 37.2633 135.909 38.321C135.909 39.3787 135.069 40.2371 134.034 40.2371C132.999 40.2371 132.159 39.3787 132.159 38.321C132.159 37.2633 132.999 36.405 134.034 36.405Z" fill="black"/>
<path d="M45.9086 45.7918V57.4816C45.9086 58.5393 46.7486 59.3977 47.7836 59.3977H62.7836V78.5583H66.5336V57.4816C66.5336 56.424 65.6936 55.5656 64.6586 55.5656H49.6586V45.7918C53.9373 44.9046 57.1586 41.0399 57.1586 36.405C57.1586 31.1148 52.9604 26.8247 47.7836 26.8247C42.6067 26.8247 38.4086 31.1148 38.4086 36.405C38.4086 41.0399 41.6298 44.9046 45.9086 45.7918ZM47.7836 34.4889C48.8186 34.4889 49.6586 35.3473 49.6586 36.405C49.6586 37.4627 48.8186 38.3211 47.7836 38.3211C46.7486 38.3211 45.9086 37.4627 45.9086 36.405C45.9086 35.3473 46.7486 34.4889 47.7836 34.4889Z" fill="black"/>
<path d="M89.9711 40.0437V97.719H93.7211V40.0437C97.9998 39.1566 101.221 35.2919 101.221 30.657C101.221 25.3667 97.0229 21.0767 91.8461 21.0767C86.6692 21.0767 82.4711 25.3667 82.4711 30.657C82.4711 35.2919 85.6923 39.1566 89.9711 40.0437ZM91.8461 28.7409C92.8811 28.7409 93.7211 29.5993 93.7211 30.657C93.7211 31.7146 92.8811 32.573 91.8461 32.573C90.8111 32.573 89.9711 31.7146 89.9711 30.657C89.9711 29.5993 90.8111 28.7409 91.8461 28.7409Z" fill="black"/>
</g>
<defs>
<clipPath id="clip0_1223_6874">
<rect width="180" height="180" fill="white" transform="translate(0.908569)"/>
</clipPath>
</defs>
</svg>
