<svg width="420" height="411" viewBox="0 0 420 411" fill="none" xmlns="http://www.w3.org/2000/svg">
<g opacity="0.06">
<path d="M393.813 105.977C374.129 72.6089 331.224 72.4508 288.068 83.8151C282.637 49.6427 265.587 0 213.871 0C174.504 0 152.931 36.1857 141.398 78.4159C108.458 66.0048 55.9166 55.6094 30.0571 99.523C10.377 132.891 31.6247 169.314 63.2469 200.179C35.7427 221.862 0.328135 261.187 26.1885 305.023C45.8727 338.391 88.7775 338.549 131.848 327.185C137.365 361.356 154.41 411 206.131 411C245.494 411 267.071 374.736 278.599 332.505C311.625 344.995 364.081 355.312 389.94 311.477C409.625 278.187 388.377 241.765 356.755 210.899C384.259 189.138 419.669 149.812 393.813 105.977ZM366.469 301.159C349.339 330.089 308.577 321.14 283.292 312.035C288.894 283.348 290.623 254.01 290.623 233.06H275.306C275.306 251.516 272.258 278.431 265.587 304.622C263.858 311.312 261.883 317.922 259.66 324.367C248.212 357.971 229.928 385.934 203.578 385.934C169.402 385.934 156.884 346.931 152.352 320.984C180.6 311.389 207.365 298.176 225.894 287.623L218.234 274.646C201.929 283.829 176.564 294.714 150.048 302.128C143.212 304.064 136.376 305.756 129.54 307.039C94.1292 314.138 60.284 312.682 47.1065 290.276C30.0571 261.346 58.225 231.291 78.9781 214.363C101.625 233.463 126.656 249.581 145.271 260.055L152.931 247.086C136.625 237.894 114.303 221.776 94.4598 202.92C89.437 198.166 84.5759 193.256 79.9632 188.171C55.9166 161.658 40.3512 132.247 53.5279 109.842C70.5781 80.9116 111.34 89.8605 136.626 98.9659C131.024 127.652 129.294 156.991 129.294 177.941H144.696C144.696 159.485 147.74 132.57 154.41 106.379C156.139 99.6892 158.118 93 160.342 86.5548C171.79 52.9508 190.07 25.067 216.424 25.067C250.6 25.067 263.117 64.071 267.645 90.0178C239.402 99.6105 212.552 112.825 194.022 123.379L201.762 136.356C217.988 127.172 243.353 116.287 269.953 108.874C276.705 106.938 283.541 105.246 290.377 103.963C325.872 96.8635 359.717 98.3197 372.894 120.726C389.94 149.655 361.776 179.711 341.023 196.639C318.376 177.538 293.259 161.421 274.73 150.946L267.07 163.915C283.292 173.108 305.694 189.225 325.457 208.082C330.564 212.835 335.421 217.833 340.033 222.908C364.081 249.343 379.646 278.753 366.469 301.159Z" fill="white"/>
<path d="M210.002 176.618C193.705 176.618 180.492 189.54 180.492 205.492C180.492 221.444 193.705 234.374 210.002 234.374C226.297 234.374 239.51 221.444 239.51 205.492C239.51 189.539 226.297 176.618 210.002 176.618Z" fill="white"/>
</g>
</svg>
