<svg width="36" height="36" viewBox="0 0 36 36" fill="none" xmlns="http://www.w3.org/2000/svg">
<path d="M17.0002 31.4634C13.6699 31.2196 10.6752 29.7681 8.45239 27.5444C8.90688 26.9669 9.46297 26.4248 10.1145 25.936C11.1289 25.1753 12.3476 24.5607 13.7043 24.1392C14.7539 23.8131 15.8661 23.6096 17.0002 23.5337V31.4634ZM19.0002 23.5337C20.1344 23.6096 21.2466 23.8131 22.2961 24.1392C23.653 24.5607 24.8715 25.1752 25.886 25.936C26.5374 26.4247 27.0927 26.967 27.5471 27.5444C25.3244 29.7678 22.3303 31.2195 19.0002 31.4634V23.5337ZM17.0002 18.9995V21.5308C15.6684 21.6094 14.3561 21.8434 13.1116 22.23C11.557 22.7129 10.1292 23.4251 8.91528 24.3354C8.24519 24.838 7.64738 25.3995 7.13013 26.0063C5.66281 24.0174 4.72748 21.612 4.53638 18.9995H17.0002ZM31.4631 18.9995C31.272 21.6121 30.3368 24.0174 28.8694 26.0063C28.3522 25.3996 27.7552 24.8379 27.0852 24.3354C25.8712 23.425 24.4436 22.713 22.8889 22.23C21.6444 21.8434 20.3322 21.6094 19.0002 21.5308V18.9995H31.4631ZM28.8684 9.99268C30.3362 11.9815 31.2717 14.3869 31.4631 16.9995H19.0002V14.4673C20.3321 14.3887 21.6444 14.1557 22.8889 13.769C24.4435 13.2861 25.8713 12.574 27.0852 11.6636C27.7551 11.1612 28.3513 10.5993 28.8684 9.99268ZM7.13013 9.99268C7.64745 10.5997 8.24505 11.1609 8.91528 11.6636C10.1293 12.574 11.5569 13.2861 13.1116 13.769C14.3561 14.1557 15.6683 14.3887 17.0002 14.4673V16.9995H4.53735C4.72881 14.3873 5.66266 11.9813 7.13013 9.99268ZM17.0002 12.4644C15.8661 12.3884 14.7539 12.1859 13.7043 11.8599C12.3474 11.4383 11.129 10.8239 10.1145 10.063C9.46305 9.57432 8.90685 9.03305 8.45239 8.45557C10.6752 6.23213 13.6701 4.7804 17.0002 4.53662V12.4644ZM19.0002 4.53662C22.3296 4.78044 25.3236 6.23196 27.5461 8.45459C27.0918 9.03194 26.5373 9.57442 25.886 10.063C24.8716 10.8238 23.6529 11.4383 22.2961 11.8599C21.2466 12.1859 20.1344 12.3884 19.0002 12.4644V4.53662Z" fill="#252525"/>
</svg>
