<svg width="36" height="36" viewBox="0 0 36 36" fill="none" xmlns="http://www.w3.org/2000/svg">
<path d="M8.17962 6.82038L11.2929 3.70711C11.6834 3.31658 12.3166 3.31658 12.7071 3.70711L17.2929 8.29289C17.6834 8.68342 17.6834 9.31658 17.2929 9.70711L14.2507 12.7493C13.8024 13.1976 13.6913 13.8825 13.9748 14.4496C15.6139 17.7279 18.2721 20.3861 21.5504 22.0252C22.1175 22.3087 22.8024 22.1976 23.2507 21.7493L26.2929 18.7071C26.6834 18.3166 27.3166 18.3166 27.7071 18.7071L32.2929 23.2929C32.6834 23.6834 32.6834 24.3166 32.2929 24.7071L29.1796 27.8204C27.0683 29.9317 23.7257 30.1693 21.337 28.3777L16.1286 24.4714C14.385 23.1638 12.8362 21.615 11.5286 19.8714L7.62226 14.663C5.83072 12.2743 6.06827 8.93173 8.17962 6.82038Z" fill="#252525"/>
</svg>
