<svg width="36" height="36" viewBox="0 0 36 36" fill="none" xmlns="http://www.w3.org/2000/svg">
<path d="M6 10.5C6 8.76701 6 7.90051 6.45508 7.26397C6.70972 6.9078 7.0591 6.60834 7.47464 6.39007C8.21726 6 9.22818 6 11.25 6C13.2718 6 14.2827 6 15.0254 6.39007C15.4409 6.60834 15.7903 6.9078 16.0449 7.26397C16.5 7.90051 16.5 8.76701 16.5 10.5C16.5 12.233 16.5 13.0995 16.0449 13.736C15.7903 14.0922 15.4409 14.3917 15.0254 14.6099C14.2827 15 13.2718 15 11.25 15C9.22818 15 8.21726 15 7.47464 14.6099C7.0591 14.3917 6.70972 14.0922 6.45508 13.736C6 13.0995 6 12.233 6 10.5Z" fill="#252525"/>
<path d="M8.0786 21.5786C9.29994 20.3573 9.9106 19.7466 10.6341 19.5729C11.039 19.4757 11.461 19.4757 11.8659 19.5729C12.5894 19.7466 13.2001 20.3573 14.4214 21.5786C15.6427 22.7999 16.2534 23.4106 16.4271 24.1341C16.5243 24.539 16.5243 24.961 16.4271 25.3659C16.2534 26.0894 15.6427 26.7001 14.4214 27.9214C13.2001 29.1427 12.5894 29.7534 11.8659 29.9271C11.461 30.0243 11.039 30.0243 10.6341 29.9271C9.9106 29.7534 9.29994 29.1427 8.0786 27.9214C6.85726 26.7001 6.24659 26.0894 6.0729 25.3659C5.9757 24.961 5.9757 24.539 6.0729 24.1341C6.24659 23.4106 6.85726 22.7999 8.0786 21.5786Z" fill="#252525"/>
<path d="M21 25.5C21 23.767 21 22.9005 21.3901 22.264C21.6083 21.9078 21.9078 21.6083 22.264 21.3901C22.9005 21 23.767 21 25.5 21C27.233 21 28.0995 21 28.736 21.3901C29.0922 21.6083 29.3917 21.9078 29.6099 22.264C30 22.9005 30 23.767 30 25.5C30 27.233 30 28.0995 29.6099 28.736C29.3917 29.0922 29.0922 29.3917 28.736 29.6099C28.0995 30 27.233 30 25.5 30C23.767 30 22.9005 30 22.264 29.6099C21.9078 29.3917 21.6083 29.0922 21.3901 28.736C21 28.0995 21 27.233 21 25.5Z" fill="#252525"/>
<path d="M25.5 6V15M30 10.5L21 10.5" stroke="#252525" stroke-width="2" stroke-linecap="round" stroke-linejoin="round"/>
</svg>
