<svg width="36" height="36" viewBox="0 0 36 36" fill="none" xmlns="http://www.w3.org/2000/svg">
<path d="M31.5 18C31.5 15.1793 30.6164 12.4294 28.9734 10.1366C27.3304 7.84372 25.0105 6.12314 22.3394 5.21644C19.6684 4.30975 16.7804 4.26249 14.0812 5.08131C11.3819 5.90012 9.00689 7.54388 7.28973 9.78172C5.57257 12.0196 4.59952 14.7391 4.50723 17.5583C4.41494 20.3775 5.20804 23.1548 6.77516 25.5002C8.34228 27.8456 10.6047 29.6411 13.2446 30.6347C15.8846 31.6283 18.7694 31.7701 21.4941 31.04" stroke="#252525" stroke-width="2" stroke-linecap="round"/>
<circle cx="18" cy="18" r="6" stroke="#252525" stroke-width="2"/>
<path d="M24 13.5V20.25C24 22.3211 25.6789 24 27.75 24V24C29.8211 24 31.5 22.3211 31.5 20.25V18" stroke="#252525" stroke-width="2" stroke-linecap="round"/>
</svg>
