<svg width="25" height="26" viewBox="0 0 25 26" fill="none" xmlns="http://www.w3.org/2000/svg">
<path d="M12 4.15039C12.4142 4.15039 12.75 3.8146 12.75 3.40039C12.75 2.98618 12.4142 2.65039 12 2.65039V4.15039ZM12 23.3504C12.4142 23.3504 12.75 23.0146 12.75 22.6004C12.75 22.1862 12.4142 21.8504 12 21.8504V23.3504ZM6.75 19.0004C6.75 18.5862 6.41421 18.2504 6 18.2504C5.58579 18.2504 5.25 18.5862 5.25 19.0004H6.75ZM5.25 7.00039C5.25 7.4146 5.58579 7.75039 6 7.75039C6.41421 7.75039 6.75 7.4146 6.75 7.00039H5.25ZM12 3.40039V2.65039H9.6V3.40039V4.15039H12V3.40039ZM9.6 22.6004V23.3504H12V22.6004V21.8504H9.6V22.6004ZM6 7.00039H6.75C6.75 6.05001 7.02419 5.35622 7.46469 4.90293C7.9017 4.45323 8.58964 4.15039 9.6 4.15039V3.40039V2.65039C8.28189 2.65039 7.16983 3.05402 6.38896 3.85756C5.61158 4.65751 5.25 5.76371 5.25 7.00039H6ZM9.6 22.6004V21.8504C8.64962 21.8504 7.95583 21.5762 7.50254 21.1357C7.05284 20.6987 6.75 20.0108 6.75 19.0004H6H5.25C5.25 20.3185 5.65363 21.4306 6.45716 22.2114C7.25712 22.9888 8.36332 23.3504 9.6 23.3504V22.6004Z" fill="white"/>
<path d="M15.5996 4.6C15.5996 2.90294 15.5996 2.05442 16.2147 1.52721C16.8298 1 17.8197 1 19.7996 1C21.7795 1 22.7695 1 23.3845 1.52721C23.9996 2.05442 23.9996 2.90294 23.9996 4.6C23.9996 6.29706 23.9996 7.14558 23.3845 7.67279C22.7695 8.2 21.7795 8.2 19.7996 8.2C17.8197 8.2 16.8298 8.2 16.2147 7.67279C15.5996 7.14558 15.5996 6.29706 15.5996 4.6Z" stroke="white" stroke-width="1.5"/>
<path d="M15.5996 21.4008C15.5996 19.7037 15.5996 18.8552 16.2147 18.328C16.8298 17.8008 17.8197 17.8008 19.7996 17.8008C21.7795 17.8008 22.7695 17.8008 23.3845 18.328C23.9996 18.8552 23.9996 19.7037 23.9996 21.4008C23.9996 23.0978 23.9996 23.9464 23.3845 24.4736C22.7695 25.0008 21.7795 25.0008 19.7996 25.0008C17.8197 25.0008 16.8298 25.0008 16.2147 24.4736C15.5996 23.9464 15.5996 23.0978 15.5996 21.4008Z" stroke="white" stroke-width="1.5"/>
<circle cx="6.261" cy="13.2623" r="1.80771" transform="rotate(28.641 6.261 13.2623)" stroke="white"/>
<path d="M10.9865 13.2839L10.976 12.8277C10.9681 12.4827 10.9642 12.3102 10.8641 12.1876C10.7641 12.065 10.596 12.0269 10.26 11.9505L9.68963 11.8198C9.48047 11.7612 9.29885 11.6304 9.17682 11.4506L9.08336 11.2974C8.98879 11.1248 8.95193 10.9263 8.97818 10.731L9.06355 10.2531C9.12062 9.93722 9.14916 9.77926 9.08504 9.64497C9.02093 9.51069 8.88029 9.43388 8.59903 9.28027L8.14747 9.03366C7.86621 8.88005 7.72558 8.80324 7.57795 8.82188C7.43031 8.84051 7.31283 8.9499 7.07788 9.16868L6.72195 9.49881C6.57185 9.62644 6.38495 9.7027 6.18862 9.71642L6.00916 9.72063C5.79194 9.71514 5.58377 9.633 5.4214 9.4887L5.00315 9.07953C4.75728 8.83805 4.63434 8.71731 4.47712 8.69937C4.31991 8.68144 4.17264 8.77135 3.87812 8.95119L3.48868 9.18897C3.2126 9.35754 3.07456 9.44182 3.01681 9.58026C2.95906 9.7187 2.99631 9.87602 3.07081 10.1907L3.23345 10.8857C3.26495 11.0707 3.21442 11.3354 3.10384 11.5379C2.99319 11.7405 2.79779 11.9261 2.62511 11.9996L1.95245 12.2384C1.64745 12.3458 1.49496 12.3995 1.4097 12.5229C1.32444 12.6463 1.32814 12.808 1.33553 13.1314L1.34597 13.5876L1.34597 13.5876C1.35386 13.9326 1.35781 14.1051 1.45787 14.2276C1.55794 14.3502 1.72598 14.3884 2.06206 14.4647L2.63235 14.5954C2.84155 14.6541 3.0232 14.7848 3.14523 14.9647L3.23866 15.1179C3.33321 15.2905 3.37005 15.489 3.3438 15.6842L3.25842 16.1621C3.20135 16.4781 3.17281 16.636 3.23693 16.7703C3.30105 16.9046 3.44168 16.9814 3.72294 17.135L4.1745 17.3816C4.45576 17.5352 4.59639 17.6121 4.74403 17.5934C4.89166 17.5748 5.00914 17.4654 5.24409 17.2466L5.60005 16.9165C5.75014 16.7888 5.937 16.7126 6.1333 16.6988L6.31275 16.6946C6.53001 16.7001 6.73822 16.7822 6.90062 16.9265L7.31884 17.3357C7.56471 17.5772 7.68765 17.6979 7.84487 17.7159C8.00208 17.7338 8.14936 17.6439 8.44388 17.4641L8.83331 17.2263C9.10938 17.0577 9.24743 16.9734 9.30518 16.835C9.36293 16.6966 9.32568 16.5392 9.25118 16.2246L9.08854 15.5296C9.05704 15.3446 9.10755 15.0798 9.2182 14.8772C9.32878 14.6748 9.52424 14.4892 9.69689 14.4157L10.3695 14.1768C10.6745 14.0695 10.827 14.0158 10.9123 13.8924C10.9976 13.7689 10.9939 13.6072 10.9865 13.2839Z" stroke="white" stroke-linecap="round"/>
</svg>
