<svg width="24" height="24" viewBox="0 0 24 24" fill="none" xmlns="http://www.w3.org/2000/svg">
<path d="M15.9307 7.57812L24 9.16699L18.3594 15.4395L19.416 24L12 20.2988L4.58398 24L5.64062 15.4395L0 9.16699L8.06934 7.57812L12 0L15.9307 7.57812ZM9.09766 9C8.18597 9 7.65515 9.096 7.40625 9.39746C7.10774 9.75411 7.00781 10.2075 7.00781 10.6465C7.00793 11.5178 7.40046 12.3347 7.40625 12.3467C7.43784 12.3064 9.65902 9.50657 16.2119 9.43848L16.2285 9.57617C13.2269 10.0974 7.53813 12.8134 7.53809 16.9561C7.53809 17.5596 7.6546 18.2048 7.93652 18.8633H8.58301C8.50009 18.5889 8.4668 18.3688 8.4668 18.1904C8.46688 17.7517 8.6997 17.5869 9.08105 17.5869C9.77757 17.5871 11.0211 18.1629 12.2812 18.5332C13.4587 18.8898 14.4041 19 15.1172 19C16.4309 19 16.9969 18.6101 17.0078 18.6025L16.8584 16.2705C16.2283 16.6681 15.4324 16.8056 14.5703 16.8057C13.3763 16.8057 12.0494 16.5445 10.8057 16.3662C10.6067 16.3388 10.4236 16.3252 10.2412 16.3252C9.08056 16.3253 8.18555 16.9019 8.18555 17.9717C8.1856 18.191 8.2189 18.4378 8.30176 18.6982H8.10254C7.95329 18.2044 7.88672 17.765 7.88672 17.3535C7.88717 13.2115 15.0498 13.4854 16.5596 11.25L16.4277 9.43848H16.4443L16.4277 9.26074C12.8956 9.24703 10.5405 9.00003 9.09766 9Z" fill="#820000"/>
</svg>
