<svg width="24" height="24" viewBox="0 0 24 24" fill="none" xmlns="http://www.w3.org/2000/svg">
<path d="M22.1731 6.34957L19.4141 6.93652L16.4351 8.78435C16.309 8.91217 16.4438 8.94087 16.5646 8.95652C19.0358 9.26522 21.5305 9.41826 24 9.74087L17.7002 15.5617L19.3915 24L12.0387 19.7391L4.34941 23.9139C4.43636 23.4496 4.42245 22.8165 4.82765 22.5235C8.12753 20.2191 11.5613 17.8826 14.6508 15.3035C16.4959 13.7626 17.6498 12.1904 19.7654 10.94C20.0567 10.7678 20.4297 10.7052 20.6966 10.48L18.2837 10.7626C17.3655 11.827 16.5211 13.2617 15.0916 13.7443C13.6299 14.2383 13.2195 13.64 12.5404 12.4635C12.2865 12.0243 11.8213 10.7243 11.5622 10.4852C11.3465 10.2861 10.5083 10.1226 10.1179 9.92957C9.88921 9.81652 8.57447 8.96435 8.53534 8.81131L10.3509 4.52348C11.5031 5.25043 11.5491 6.76174 12.1587 7.80174C12.2291 7.92174 12.2648 8.03478 12.4369 8.00087L11.5239 5.04522C11.3126 4.52696 10.3979 3.5687 10.3492 3.08957C10.3292 2.89304 10.3379 2.97652 10.4396 2.99739C10.7527 3.06261 11.0726 3.12957 11.3935 3.13043L10.5266 2.82435L10.4379 2.52261L12.0022 2.86957L10.6101 2.30696L10.5257 1.82696C10.5674 1.76957 11.6761 2.34087 11.8257 2.39565C11.9074 2.42522 12.1091 2.50957 12.0891 2.34957C11.6013 2.03826 10.5814 1.85826 10.6987 1.1313L11.7413 1.73913C11.6074 1.46261 11.2022 1.29217 11.1344 0.999131C11.1092 0.892174 11.1031 0.719131 11.2622 0.784348C11.4292 1.03565 11.7883 1.18609 11.9561 1.39478C12.7943 2.43652 13.6786 4.67217 14.4543 5.94C14.769 6.45478 15.0942 6.97044 15.4794 7.43652C16.6029 7.65478 17.9411 7.38174 18.9297 6.79739C19.2593 6.60261 19.5715 6.21304 19.7958 6.09826C20.3827 5.79652 21.4705 6.40783 22.1757 6.3487L22.1731 6.34957Z" fill="#820000"/>
<path d="M4.77896 9.22C4.80157 9.23739 4.80765 9.44435 4.89547 9.54087C5.46241 10.1661 7.34756 10.3626 8.17362 10.3496L7.17278 10.5287L5.08851 10.173C4.9946 11.1452 6.65889 10.7635 7.30408 10.9574C7.26061 11.0722 6.8441 11.1087 6.72845 11.12C6.49716 11.1417 6.27021 11.1157 6.04239 11.1304C5.64154 11.1574 5.83022 11.3496 6.06674 11.4557C6.55455 11.673 7.02931 11.4409 7.30843 11.5157C8.2884 11.7774 8.91272 14.4113 9.34488 15.2217C9.69617 15.88 10.1988 16.0409 10.1805 16.9148C10.1518 18.2991 8.75881 18.987 7.87189 19.7417C6.84236 20.6174 5.89544 21.6026 4.69722 22.2617L6.21543 15.5626L0 9.78435L4.77896 9.22087V9.22Z" fill="#820000"/>
<path d="M8.69534 10.0017C8.71621 10.1583 8.50578 10.0809 8.41361 10.0661C7.57625 9.93217 6.75019 9.66435 5.91283 9.52261L5.04417 9.21826L6.36847 9.05826C7.0467 9.56869 7.86145 9.85739 8.69534 10.0009V10.0017Z" fill="#820000"/>
<path d="M8.86924 9.73826L8.05536 9.46609L7.21713 8.95739C7.96232 8.74957 8.35535 9.29305 8.86924 9.73826Z" fill="#820000"/>
<path d="M11.8257 1.04348L11.37 0.5L11.3057 0C11.61 0.237391 11.8031 0.661739 11.8257 1.04261V1.04348Z" fill="#820000"/>
</svg>
