<?xml version="1.0" encoding="UTF-8"?>
<svg id="_Слой_1" data-name="Слой_1" xmlns="http://www.w3.org/2000/svg" version="1.1" viewBox="0 0 1000 1000">
    <!-- Generator: Adobe Illustrator 29.0.0, SVG Export Plug-In . SVG Version: 2.1.0 Build 186)  -->
    <defs>
        <style>
            .st0 {
            stroke: #801810;
            }

            .st0, .st1 {
            fill: none;
            stroke-miterlimit: 10;
            stroke-width: 3px;
            }

            .st2 {
            fill: #820000;
            }

            .st3 {
            display: none;
            fill: #fff;
            }

            .st4 {
            fill: #801810;
            }

            .st1 {
            stroke: #3f3f3f;
            }
        </style>
    </defs>
    <rect class="st3" width="1000" height="1000"/>
    <g>
        <g>
            <path
                d="M845.41,421.17l.4.19c11.28,5.28,9.33,16.39,9.3,16.5l-.07.39-23.65,13.41.23-1.69c1.43-10.53-7.92-14.53-8.32-14.69l-1.6-.66,23.71-13.44ZM853.5,437.18c.22-1.85.64-9.81-8.03-14.1l-20.11,11.4c2.74,1.62,8.4,5.97,8.06,14.09l20.08-11.38Z"/>
            <path
                d="M854.32,436.92l.37.14c.11.04,10.64,4.08,9.38,16.46l-.04.43-23.71,13.44.25-1.71c.06-.43,1.43-10.5-8.33-14.69l-1.56-.67,23.65-13.41ZM862.43,452.92c.77-9.65-6.28-13.38-7.98-14.13l-20.08,11.38c7.14,3.87,7.96,10.97,7.95,14.15l20.11-11.4Z"/>
            <path
                d="M842.98,420.04l2.14,2.09-1.18,1.21-1.24-1.21-21.62,12.26c9.83,7.69,9.93,13.37,9.75,14.86l1.72,3.03c5.77,3.57,7.42,12.73,7.85,16.16l21.86-12.39-.47-1.96,1.64-.4.77,3.19-25.26,14.32-.09-1.34c0-.12-.93-12.49-7.35-16.26l-.2-.12-2.26-3.98.09-.33s1.22-5.8-10.08-14.23l-1.04-.77,24.96-14.15Z"/>
        </g>
        <g>
            <path
                d="M464.73,822.13c-1.2,0-2.23.43-3.07,1.27-.84.85-1.26,1.87-1.26,3.08h-5.78c0-2.79.98-5.18,2.96-7.16,1.97-1.98,4.36-2.97,7.16-2.97,2.8,0,5.18.98,7.16,2.96,1.98,1.97,2.97,4.36,2.97,7.16v2.89c0,2.8-.98,5.18-2.95,7.16-1.97,1.98-4.36,2.97-7.16,2.97-1.2,0-2.23.43-3.07,1.27-.84.85-1.26,1.87-1.26,3.08v1.45s13.02-.02,13.02-.02v5.78s-18.8.02-18.8.02v-7.23c-.01-2.8.97-5.18,2.95-7.16,1.97-1.98,4.36-2.97,7.16-2.97,1.21,0,2.23-.42,3.07-1.27.84-.85,1.26-1.87,1.26-3.08v-2.89c0-1.2-.43-2.23-1.27-3.07-.84-.84-1.87-1.26-3.08-1.26Z"/>
            <g>
                <path class="st2"
                      d="M495.64,821.81l-3.42-.57c.61-3.69,1.93-14.06.73-17.66-.14-.44-.27-.56-.27-.56l2.44-2.46c.47.47.84,1.1,1.11,1.93,1.69,5.07-.36,17.88-.6,19.33Z"/>
                <rect class="st2" x="494.64" y="800.74" width="3.46" height="4.63"
                      transform="translate(-437.75 666.26) rotate(-49.95)"/>
                <path class="st2"
                      d="M496.05,802.4s-1.83,3.5,2.72,6.29l6.37,2.79c-3.65-10.9-9.09-9.07-9.09-9.07l-.08-.07"/>
                <path class="st2"
                      d="M495.14,851.02c-4.79,0-8.88-1.68-12.28-5.07-3.4-3.39-5.1-7.47-5.1-12.26s1.28-9.34,5.07-12.28c5.22-4.04,7.98-.12,12.28.18,4.39.3,7.04-4.24,12.26-.21,3.79,2.93,5.1,7.47,5.1,12.26,0,4.79-1.68,8.88-5.07,12.28-3.39,3.4-7.47,5.1-12.26,5.1ZM495.13,845.23c3.2,0,5.92-1.14,8.18-3.4,2.25-2.26,3.38-4.99,3.38-8.19,0-3.2-1.14-5.92-3.4-8.18-2.26-2.26-4.98.35-8.17.35-3.2,0-5.94-2.59-8.19-.33-2.25,2.26-3.38,4.99-3.38,8.19,0,3.2,1.14,5.93,3.4,8.18,2.26,2.26,4.99,3.38,8.19,3.38Z"/>
            </g>
            <path
                d="M525.48,822.05c-1.2,0-2.23.43-3.07,1.27-.84.85-1.26,1.87-1.26,3.08h-5.78c0-2.79.98-5.18,2.96-7.16,1.97-1.98,4.36-2.97,7.16-2.97s5.18.98,7.16,2.96c1.98,1.97,2.97,4.36,2.97,7.16v2.89c0,2.8-.98,5.18-2.95,7.16-1.97,1.98-4.36,2.97-7.16,2.97-1.2,0-2.23.43-3.07,1.27-.84.85-1.26,1.87-1.26,3.08v1.45s13.02-.02,13.02-.02v5.78s-18.8.02-18.8.02v-7.23c-.01-2.8.97-5.18,2.95-7.16,1.97-1.98,4.36-2.97,7.16-2.97,1.21,0,2.23-.42,3.07-1.27.84-.85,1.26-1.87,1.26-3.08v-2.89c0-1.2-.43-2.23-1.27-3.07-.84-.84-1.87-1.26-3.08-1.26Z"/>
            <path
                d="M548.62,822.02c-1.2,0-2.23.43-3.07,1.27-.84.85-1.26,1.87-1.26,3.08h-5.78c0-2.79.98-5.18,2.96-7.16,1.97-1.98,4.36-2.97,7.16-2.97s5.18.98,7.16,2.96c1.98,1.97,2.97,4.36,2.97,7.16v2.89c0,2.8-.98,5.18-2.95,7.16-1.97,1.98-4.36,2.97-7.16,2.97-1.2,0-2.23.43-3.07,1.27-.84.85-1.26,1.87-1.26,3.08v1.45s13.02-.02,13.02-.02v5.78s-18.8.02-18.8.02v-7.23c-.01-2.8.97-5.18,2.95-7.16,1.97-1.98,4.36-2.97,7.16-2.97,1.21,0,2.23-.42,3.07-1.27.84-.85,1.26-1.87,1.26-3.08v-2.89c0-1.2-.43-2.23-1.27-3.07-.84-.84-1.87-1.26-3.08-1.26Z"/>
        </g>
        <g>
            <path
                d="M705.06,144.82l205.06,355.18-205.06,355.18h-410.12L89.88,500l205.06-355.18h410.12M708.25,139.3h-416.5L83.5,500l208.25,360.7h416.5l208.25-360.7-208.25-360.7h0Z"/>
            <g>
                <path class="st2"
                      d="M138.67,449.6l1.52-2.63,22.84,13.19-1.9,3.29-20.6-11.89,17.2,17.77-.06.1-1.7,2.94-1.14,1.97-24.06-6.05,20.66,11.93-1.92,3.32-22.91-13.23,1.54-2.67.38-.66,2.46-4.26,20.71,5.22-14.78-15.32,1.38-2.39.38-.66Z"/>
                <path class="st2"
                      d="M170.3,442.3l2.64.7-8.69,15.06-22.88-13.21,1.26-2.18,1.48-2.56,5.95-10.31,1.89,1.92-5.6,9.69,7.75,4.48,4.8-8.31,1.3,1.58-4.44,7.68,8.93,5.16,5.6-9.69Z"/>
                <path class="st2"
                      d="M158.09,421.08c2.63,2.01,4.86,3.72,6.7,5.14,1.84,1.42,3.62,2.8,5.33,4.16,1.71,1.36,3.02,2.41,3.95,3.16.81.68,1.36,1.38,1.65,2.1.29.72.42,1.42.39,2.09-.04.67-.15,1.28-.34,1.83-.19.55-.49,1.14-.88,1.77-.4-.85-.89-1.65-1.45-2.41s-1.41-1.63-2.53-2.61c-.64-.59-1.84-1.59-3.6-3-1.75-1.41-3.64-2.93-5.66-4.54-2.02-1.61-4.53-3.61-7.53-5.98l.1-.17,1.66-2.87,3-5.19,2.48-4.29.26-.45,22.88,13.21-2.74,4.74-20.63-11.91-3.02,5.23Z"/>
                <path class="st2"
                      d="M172.54,390.94l1.14-1.97,22.84,13.19-2.74,4.74-17.62-10.17,12.24,19.48-1.78,3.08-.96,1.66-22.84-13.19,2.74-4.74,17.03,9.83-11.81-18.87.16-.28,1.6-2.77Z"/>
                <path class="st2"
                      d="M184.28,370.61l1.89,1.92-2.98,5.16,20.59,11.89-2.74,4.74-20.6-11.89-2.98,5.16-2.61-.68,3.34-5.78,2.74-4.74,3.34-5.78Z"/>
                <path class="st2"
                      d="M190.85,358.03c1.44-2.49,3.03-4.23,4.76-5.21,1.74-.98,3.68-1.28,5.83-.9,2.15.38,4.55,1.33,7.2,2.87,2.68,1.55,4.71,3.15,6.1,4.82,1.39,1.67,2.1,3.5,2.12,5.49.02,1.99-.69,4.24-2.13,6.73-1.43,2.47-3.01,4.19-4.74,5.18-1.74.98-3.68,1.29-5.82.93s-4.55-1.31-7.23-2.86c-2.65-1.53-4.68-3.14-6.08-4.82-1.4-1.68-2.1-3.52-2.12-5.52-.02-2,.69-4.23,2.11-6.7ZM214.54,364.88c-.25-.95-1.3-1.97-3.15-3.06-1.84-1.09-3.65-1.98-5.41-2.66-3.13-1.35-5.52-1.9-7.17-1.65-1.91.37-3.46,1.19-4.64,2.44-.85.83-1.59,1.69-2.23,2.59s-.94,1.7-.9,2.43c.25.95,1.31,1.97,3.16,3.07,1.86,1.1,3.66,2,5.41,2.71,3.14,1.32,5.54,1.86,7.19,1.61,1.91-.37,3.44-1.19,4.61-2.46.86-.8,1.61-1.65,2.24-2.56s.93-1.73.89-2.46Z"/>
                <path class="st2"
                      d="M206.87,331.4l1.6-2.77,22.88,13.21-2.74,4.74-21.22-12.25-4.62,8,21.22,12.25-2.74,4.74-22.88-13.21,1.26-2.18,1.48-2.56,4.62-8,1.14-1.97Z"/>
                <path class="st2"
                      d="M215.02,316.16c1.44-2.49,3.03-4.23,4.76-5.21,1.74-.98,3.68-1.28,5.83-.9,2.15.38,4.55,1.34,7.21,2.87,2.68,1.55,4.71,3.15,6.1,4.82,1.39,1.67,2.1,3.5,2.12,5.49s-.69,4.24-2.13,6.73c-1.43,2.47-3.01,4.19-4.74,5.18-1.74.98-3.68,1.29-5.82.93-2.15-.36-4.55-1.31-7.23-2.86-2.65-1.53-4.68-3.14-6.08-4.82-1.4-1.68-2.1-3.52-2.12-5.52-.02-1.99.69-4.23,2.11-6.69ZM238.71,323.01c-.25-.95-1.3-1.97-3.15-3.06-1.84-1.09-3.65-1.98-5.41-2.66-3.13-1.35-5.52-1.9-7.17-1.65-1.91.37-3.46,1.19-4.64,2.44-.85.83-1.59,1.69-2.23,2.59-.64.89-.94,1.7-.9,2.43.25.95,1.31,1.97,3.16,3.07,1.86,1.1,3.66,2,5.41,2.71,3.14,1.32,5.54,1.86,7.19,1.61,1.91-.37,3.44-1.19,4.61-2.46.86-.8,1.61-1.65,2.24-2.56s.93-1.73.89-2.46Z"/>
                <path class="st2"
                      d="M229.41,297.56c2.63,2.01,4.86,3.72,6.7,5.14,1.84,1.42,3.62,2.8,5.33,4.16,1.71,1.36,3.02,2.41,3.95,3.16.81.68,1.36,1.38,1.65,2.1.29.72.42,1.42.39,2.09-.04.67-.15,1.28-.34,1.83s-.49,1.14-.88,1.77c-.4-.85-.89-1.65-1.45-2.41s-1.41-1.63-2.53-2.61c-.64-.59-1.84-1.59-3.6-3-1.75-1.41-3.64-2.93-5.66-4.54-2.02-1.61-4.53-3.61-7.53-5.98l.1-.17,1.66-2.87,3-5.19,2.48-4.29.26-.45,22.88,13.21-2.74,4.74-20.63-11.91-3.02,5.23Z"/>
                <path class="st2"
                      d="M244.64,278.45c1.19-1.37,2.55-2.12,4.07-2.24,1.52-.12,3.04.12,4.57.72,1.53.61,2.84,1.23,3.95,1.87,1.64.95,3.06,2.39,4.28,4.34,1.21,1.95,1.51,3.88.9,5.8-.29.72-.73,1.56-1.31,2.52-.58.96-1.19,1.89-1.81,2.81-.62.92-1.39,1.98-2.29,3.18l-22.88-13.21,2.53-4.31,6.96,4.02c-.16-2.49.19-4.32,1.05-5.49ZM254.56,283.02c-.23-.13-.47-.27-.73-.42-.91-.56-1.94-1.11-3.08-1.66-1.14-.55-2.21-.85-3.2-.9-.99-.05-1.74.41-2.27,1.37-.44.92-.68,1.95-.72,3.09l13.81,7.97c.5-.45.9-.91,1.18-1.4.43-.74.37-1.65-.16-2.72s-1.27-2.12-2.21-3.12c-.94-1.01-1.82-1.74-2.63-2.21Z"/>
                <path class="st2"
                      d="M273.81,261.91l.5.1c1.01,2.62.47,5.75-1.64,9.39-1.44,2.49-3.02,4.22-4.75,5.19-1.73.97-3.67,1.28-5.81.91-2.15-.36-4.56-1.31-7.23-2.86-2.65-1.53-4.68-3.14-6.08-4.82-1.4-1.68-2.11-3.52-2.13-5.5s.68-4.22,2.12-6.71c2.02-3.51,4.37-5.52,7.04-6.04l2.04,5.1c-1.03.18-2.08.55-3.15,1.11-1.08.56-1.95,1.15-2.6,1.75-.85.83-1.59,1.69-2.23,2.59-.64.89-.94,1.7-.9,2.43.25.95,1.3,1.97,3.15,3.06,1.84,1.09,3.65,2,5.42,2.72,3.14,1.32,5.53,1.85,7.16,1.59,1.93-.36,3.48-1.18,4.64-2.44.82-.79,1.66-1.81,2.5-3.08s1.5-2.77,1.97-4.49Z"/>
                <path class="st2"
                      d="M283.38,244.76c.74-.06,1.46-.17,2.15-.33.69-.16,1.49-.35,2.4-.6-.46,1.12-.92,2.04-1.38,2.75-.46.72-1.03,1.36-1.72,1.94-.68.57-1.48.9-2.4.99-.52.04-1.55.12-3.08.23-1.54.11-3.19.23-4.95.35-1.76.12-3.27.22-4.51.3l10.69,6.18-2.74,4.74-22.88-13.21,2.74-4.74,9.59,5.53-5.59-12.46,2.12-3.67,5.84,13.06c.96-.06,2.39-.17,4.3-.33s3.78-.31,5.61-.45c1.84-.14,3.11-.24,3.81-.29Z"/>
                <path class="st2"
                      d="M276.01,211.73l1.14-1.97,22.84,13.19-2.74,4.74-17.62-10.17,12.24,19.48-1.78,3.08-.96,1.66-22.84-13.19,2.74-4.74,17.03,9.83-11.81-18.87.16-.28,1.6-2.77Z"/>
                <path class="st2"
                      d="M283.21,190.23c.2,1.19.11,2.52-.28,3.97-.39,1.45-1.18,2.97-2.38,4.56-.98,1.28-1.95,2.31-2.89,3.09l-1.81-3.26c2.29-1.14,3.95-2.53,4.98-4.19,1.03-1.65,1.64-3.07,1.83-4.25l.55.09ZM288.08,190.82l1.14-1.97,22.84,13.19-2.74,4.74-17.62-10.17,12.24,19.48-1.78,3.08-.96,1.66-22.84-13.19,2.74-4.74,17.03,9.83-11.81-18.87.16-.28,1.6-2.77Z"/>
                <path class="st2" d="M349.88,161.84l-.72,2.64h-9.71v23.78h-5.48v-26.42h15.91Z"/>
                <path class="st2"
                      d="M363.98,161.28c2.88,0,5.17.51,6.89,1.52s2.95,2.54,3.7,4.6c.75,2.05,1.12,4.61,1.12,7.67s-.37,5.65-1.12,7.69c-.75,2.04-1.98,3.56-3.7,4.58-1.72,1.01-4.02,1.52-6.89,1.52s-5.14-.51-6.85-1.52-2.96-2.54-3.72-4.58c-.76-2.04-1.14-4.6-1.14-7.69s.38-5.62,1.14-7.67c.76-2.05,2-3.58,3.72-4.6s4-1.52,6.85-1.52ZM369.89,185.22c.69-.69,1.05-2.11,1.08-4.26.03-2.14-.11-4.15-.4-6.01-.4-3.38-1.12-5.73-2.16-7.03-1.28-1.47-2.76-2.4-4.44-2.8-1.15-.32-2.27-.53-3.36-.64-1.09-.11-1.95.04-2.56.44-.69.69-1.05,2.12-1.08,4.28-.03,2.16.09,4.17.36,6.03.43,3.38,1.16,5.73,2.2,7.04,1.28,1.47,2.76,2.38,4.44,2.76,1.12.35,2.23.57,3.34.66,1.11.09,1.96-.06,2.58-.46Z"/>
                <path class="st2"
                      d="M398.64,185.06l.16.48c-1.76,2.19-4.74,3.28-8.95,3.28-2.88,0-5.17-.51-6.87-1.52-1.71-1.01-2.94-2.54-3.7-4.58-.76-2.04-1.14-4.6-1.14-7.69s.38-5.62,1.14-7.67,1.99-3.58,3.7-4.6c1.7-1.01,4-1.52,6.87-1.52,4.05,0,6.97,1.03,8.75,3.08l-3.4,4.32c-.67-.8-1.51-1.52-2.54-2.18s-1.96-1.11-2.82-1.38c-1.15-.32-2.27-.53-3.36-.64-1.09-.11-1.95.04-2.56.44-.69.69-1.05,2.11-1.08,4.26s.09,4.16.36,6.06c.43,3.38,1.16,5.72,2.2,6.99,1.28,1.49,2.76,2.43,4.44,2.8,1.09.32,2.4.53,3.92.62,1.52.09,3.14-.09,4.88-.54Z"/>
                <path class="st2"
                      d="M419.33,161.84h3.52l-15.03,26.42h-4.28l6.35-11.19-8.71-15.23h5.68l6.23,11.03,6.23-11.03Z"/>
                <path class="st2"
                      d="M446.94,186.14h1.72v4.28h-1.76l-.84-2.16h-18.22l-.84,2.16h-1.76v-4.28h2.88l3.84-24.3h14.99v24.3ZM432.35,186.14h9.11v-21.7h-6.03l-3.08,21.7Z"/>
                <path class="st2"
                      d="M466.27,188.26l-1.8-6.27h-8.11l-1.8,6.27h-3.48l7.51-26.42h5.79l7.55,26.42h-5.67ZM457.15,180.07h6.91l-3.48-12.11-3.44,12.11Z"/>
                <path class="st2"
                      d="M482.66,161.88c3.12,0,5.38.59,6.79,1.76,1.41,1.17,2.14,2.73,2.2,4.68.05,1.15-.16,2.25-.64,3.32-.48,1.07-1.28,1.94-2.4,2.64s-2.62,1.04-4.52,1.04h-4.32v12.95h-5.48v-26.38h8.35ZM486.37,168.88c.13-1.33-.19-2.4-.96-3.2s-1.69-1.2-2.76-1.2h-2.26c-.44,0-.65,0-.62,0v8.91c1.84,0,3.36-.42,4.56-1.26,1.2-.84,1.88-1.92,2.04-3.26Z"/>
                <path class="st2"
                      d="M514.65,185.06l.16.48c-1.76,2.19-4.74,3.28-8.95,3.28-2.88,0-5.17-.51-6.87-1.52-1.71-1.01-2.94-2.54-3.7-4.58-.76-2.04-1.14-4.6-1.14-7.69s.38-5.62,1.14-7.67,1.99-3.58,3.7-4.6c1.7-1.01,4-1.52,6.87-1.52,4.05,0,6.97,1.03,8.75,3.08l-3.4,4.32c-.67-.8-1.51-1.52-2.54-2.18s-1.96-1.11-2.82-1.38c-1.15-.32-2.27-.53-3.36-.64-1.09-.11-1.95.04-2.56.44-.69.69-1.05,2.11-1.08,4.26s.09,4.16.36,6.06c.43,3.38,1.16,5.72,2.2,6.99,1.28,1.49,2.76,2.43,4.44,2.8,1.09.32,2.4.53,3.92.62,1.52.09,3.14-.09,4.88-.54Z"/>
                <path class="st2" d="M536.09,161.88l-.72,2.6h-5.95v23.78h-5.48v-23.78h-5.96l-.72-2.6h18.82Z"/>
                <path class="st2"
                      d="M552.97,174.11c1.6.69,2.76,1.69,3.48,2.98.72,1.29,1.08,2.64,1.08,4.06,0,2.13-.85,3.85-2.56,5.16-1.71,1.31-4.28,1.96-7.71,1.96h-8.79v-26.38h8.35c3.12,0,5.39.59,6.81,1.76,1.43,1.17,2.16,2.73,2.22,4.68.05,1.12-.15,2.2-.62,3.24-.47,1.04-1.22,1.89-2.26,2.56ZM543.93,164.48v8.91c1.84,0,3.36-.42,4.56-1.26,1.2-.84,1.89-1.92,2.08-3.26.11-1.33-.22-2.4-.98-3.2s-1.67-1.2-2.74-1.2h-2.28c-.45,0-.67,0-.64,0ZM547.45,185.62c1.28,0,2.38-.46,3.3-1.38.92-.92,1.31-2.15,1.18-3.7-.24-1.52-1.08-2.76-2.52-3.74-1.44-.97-3.26-1.46-5.48-1.46v10.27h3.52Z"/>
                <path class="st2"
                      d="M576.65,185.62l.72,2.64h-17.39v-26.42h17.39l-.72,2.6h-11.19v8.95h9.59l-.72,1.92h-8.87v10.31h11.19Z"/>
                <path class="st2"
                      d="M594.44,161.84h5.51v26.42h-5.51v-12.95h-9.23v12.95h-5.48v-26.42h5.48v11.55h9.23v-11.55Z"/>
                <path class="st2"
                      d="M617.08,161.84h5.51v26.42h-5.51v-12.95h-9.23v12.95h-5.48v-26.42h5.48v11.55h9.23v-11.55Z"/>
                <path class="st2"
                      d="M635.31,168.08c1.79.32,3.1,1.11,3.96,2.38.85,1.27,1.4,2.7,1.64,4.32.24,1.61.36,3.06.36,4.34,0,1.92-.54,3.89-1.62,5.91-1.08,2.03-2.59,3.24-4.54,3.64-.8.13-1.76.19-2.88.16-1.12-.03-2.23-.09-3.34-.18-1.11-.09-2.4-.22-3.9-.38v-26.42h5v8.03c2.08-1.38,3.85-1.98,5.31-1.8ZM636.27,178.91v-.8c.03-1.09,0-2.27-.08-3.52-.08-1.25-.35-2.32-.82-3.22-.47-.89-1.23-1.31-2.3-1.26-1.04.08-2.07.37-3.08.88v15.95c.66.24,1.26.36,1.8.36.85,0,1.62-.5,2.3-1.5s1.21-2.16,1.6-3.48c.39-1.32.58-2.46.58-3.42ZM644.03,161.84h5v26.42h-5v-26.42Z"/>
                <path class="st2"
                      d="M670.83,161.88h2.28v26.38h-5.48v-20.34l-10.75,20.34h-5.48v-26.38h5.48v19.66l10.43-19.66h3.52ZM668.91,157.37c-.93.77-2.12,1.35-3.58,1.74-1.45.39-3.16.46-5.14.22-1.6-.21-2.97-.53-4.12-.96l1.92-3.2c2.13,1.41,4.17,2.15,6.12,2.22,1.94.07,3.48-.11,4.6-.54l.2.52Z"/>
                <path class="st2"
                      d="M718.43,202.02l1.76,3.05-30.39.2-2.14-3.7,12.87-.09,8.83-15.16,2.84,4.92-6.44,10.91,12.67-.12Z"/>
                <path class="st2"
                      d="M728.74,219.87l2.76,4.78-22.88,13.21-2.76-4.78,11.21-6.47-4.62-8-11.22,6.47-2.74-4.74,22.88-13.21,2.74,4.74-10,5.78,4.62,8,10-5.78Z"/>
                <path class="st2"
                      d="M742.41,243.62l1.14,1.97-22.84,13.19-2.74-4.74,17.62-10.17-22.99.86-1.78-3.08-.96-1.66,22.84-13.19,2.74,4.74-17.03,9.83,22.25-.8.16.28,1.6,2.77Z"/>
                <path class="st2"
                      d="M741.4,266.33c.2,1.73-.08,3.23-.84,4.5s-1.75,2.26-2.97,2.96c-1.85,1.07-3.76,1.19-5.74.36-1.98-.82-3.83-2.72-5.55-5.7l-1.66-2.87-2.74-4.74,22.84-13.19,2.18,3.77.56.97,1.44,2.49c1.56,2.7,2.19,4.96,1.88,6.78-.3,1.82-1.28,3.24-2.94,4.26-.94.61-1.98.97-3.11,1.08-1.13.12-2.25-.11-3.35-.68ZM728.67,267.31c.64,1.11,1.59,1.83,2.84,2.17,1.26.34,2.52.06,3.79-.83,1.2-.97,1.85-2.32,1.98-4.05s-.37-3.56-1.47-5.47l-8.9,5.14c.53.92,1.12,1.94,1.76,3.05ZM745.22,253.7l-7.72,4.46c.92,1.59,2.04,2.7,3.37,3.32,1.33.62,2.61.68,3.86.17,1.21-.57,1.97-1.39,2.28-2.45s.2-2.05-.33-2.97c-.53-.92-.91-1.58-1.14-1.97s-.33-.58-.32-.55Z"/>
                <path class="st2"
                      d="M743.26,292.59l-1.92,1.94-8.69-15.06,22.88-13.21,1.26,2.18,1.48,2.56,5.96,10.31-2.61.68-5.6-9.69-7.75,4.48,4.8,8.31-2.02.34-4.44-7.68-8.93,5.16,5.6,9.69Z"/>
                <path class="st2"
                      d="M769.54,290.62c1.56,2.7,2.18,4.95,1.87,6.76-.31,1.81-1.29,3.22-2.95,4.24-.97.62-2.03.99-3.19,1.1s-2.32-.13-3.48-.76c-1.16-.62-2.21-1.75-3.16-3.39-1.09-1.89-1.81-3.14-2.16-3.74l-11.22,6.47-2.74-4.74,22.84-13.19,2.16,3.74.58,1,1.44,2.49ZM765.34,297.34c1.22-.55,1.98-1.36,2.29-2.43.31-1.07.19-2.07-.34-2.99-.53-.92-.91-1.57-1.13-1.96-.22-.38-.32-.56-.31-.54l-7.72,4.46c.92,1.59,2.04,2.7,3.37,3.32s2.61.66,3.84.14Z"/>
                <path class="st2"
                      d="M765.47,329.94l-.34.38c-2.77-.43-5.21-2.47-7.31-6.11-1.44-2.49-2.15-4.73-2.12-6.71.02-1.98.73-3.81,2.12-5.49,1.38-1.68,3.42-3.29,6.09-4.83,2.65-1.53,5.06-2.48,7.21-2.85,2.16-.37,4.1-.07,5.83.9,1.73.97,3.31,2.7,4.75,5.19,2.03,3.51,2.6,6.55,1.71,9.12l-5.44-.78c.36-.98.56-2.07.62-3.29s-.02-2.26-.21-3.13c-.3-1.15-.67-2.23-1.13-3.23s-1.01-1.67-1.66-2c-.95-.25-2.36.14-4.23,1.19-1.87,1.05-3.56,2.16-5.06,3.34-2.72,2.06-4.37,3.86-4.96,5.4-.65,1.85-.72,3.6-.2,5.24.27,1.11.74,2.34,1.42,3.7.68,1.36,1.65,2.68,2.91,3.95Z"/>
                <path class="st2"
                      d="M796.51,337.34l1.14,1.97-22.84,13.19-2.74-4.74,17.62-10.17-22.99.86-1.78-3.08-.96-1.66,22.84-13.19,2.74,4.74-17.03,9.83,22.25-.8.16.28,1.6,2.77Z"/>
                <path class="st2"
                      d="M808.28,357.72l-2.61.68-2.98-5.16-20.6,11.89-2.74-4.74,20.59-11.89-2.98-5.16,1.89-1.92,3.34,5.78,2.74,4.74,3.34,5.78Z"/>
                <path class="st2"
                      d="M797.23,386.06l-1.92,1.94-8.69-15.06,22.88-13.21,1.26,2.18,1.48,2.56,5.96,10.31-2.61.68-5.6-9.69-7.75,4.48,4.8,8.31-2.02.34-4.44-7.68-8.93,5.16,5.6,9.69Z"/>
                <path class="st2"
                      d="M828.77,393.21l-2.61.68-2.98-5.16-20.6,11.89-2.74-4.74,20.59-11.89-2.98-5.16,1.89-1.92,3.34,5.78,2.74,4.74,3.34,5.78Z"/>
            </g>
            <path
                d="M671.77,797.52h-343.54l-.8-1.38-170.97-296.14,171.77-297.52h343.54l.8,1.38,170.97,296.14-171.77,297.52ZM331.42,791.99h337.17l168.58-291.99-168.58-291.99h-337.17l-168.58,291.99,168.58,291.99Z"/>
            <polygon class="st2"
                     points="592.34 832.63 592.25 826.76 687.41 825.32 869.95 508.43 875.03 511.36 690.83 831.14 592.34 832.63"/>
            <polygon class="st2"
                     points="412.26 831.54 308.94 831.16 124.73 511.36 129.81 508.43 312.34 825.3 412.28 825.67 412.26 831.54"/>
        </g>
        <g>
            <g>
                <path class="st2"
                      d="M570.82,715.66c-1.94,1.29-1.39-23.25,24.23-44.06,0,0,13.98,28.3-17.17,48.82-2.33,1.6,6.46-12.06,11.24-27.1,2.75-10.05-5.84,14.07-18.3,22.34Z"/>
                <path class="st2"
                      d="M585.82,728.15c-1.6-2.35,28.39-2.08,54.25,28.89,0,0-34.36,17.55-59.95-20.18-2-2.82,14.84,7.7,33.3,13.3,12.32,3.2-17.29-6.9-27.6-22Z"/>
                <path class="st2"
                      d="M619.08,711.6c-1.92-1.66,24.02-8.24,53.36,12.62,0,0-25.66,22.94-56.3-3.82-2.36-1.98,14.55,3.28,31.74,3.92,11.36-.03-16.48-2.03-28.81-12.72Z"/>
                <path class="st2"
                      d="M650.38,695.43c-6.18.5,20.28,23.97,46.24-8.06-.91-2.18-19.86-17.93-42.91,3.7,0,0,21-2.85,23.49-.41,0,0-14.95,3.82-26.81,4.77Z"/>
                <path class="st2"
                      d="M611.63,699.16c-2.57-1.68-2.91-17.55-1.9-20.59,0,0,3.48-13.29,14.76-21.78,0,0,15.81,22.08-2.98,44.05,0,0,3.49-11.84-1.9-20.59,0,0-.98,16.46-7.98,18.91Z"/>
                <path class="st2"
                      d="M643.78,676.03s5.58-11.1,5.1-23.04c-.48-11.94-.35-.87-.35-.87,0,0,6.45,16.2,4.17,20.37,0,0,12.97-14.19-1.76-35.16,0,0-18.79,14.58-7.16,38.72Z"/>
                <path class="st2"
                      d="M674.94,661.55c-.36.16,12.78-17.73,31.92-11.41,0,0-3.88,23.57-30.09,20.96,0,0,3.6-7.61,13.62-11.09,0,0-1.11-4.9-15.46,1.54Z"/>
                <path class="st2"
                      d="M666.8,641.89s4.66-8.28-1.83-20.56c0,0,6.59,1.39,8.39,14.39,0,0,8.58-18.81-14.65-27.21,0,0-.88,23.1,8.08,33.38Z"/>
                <path class="st2"
                      d="M686.15,631.41s-1.16-12.24,25.49-20.37c0,0,4.42,24.09-23.57,29.72,0,0-.67-3.67,5.87-9.53,0,0,4.95-2.53,6.33-6.12,0,0-10.44,2.58-14.13,6.3Z"/>
                <path class="st2"
                      d="M694.88,607.04s21.2-2.93,15.16-28.84c0,0-15.41,7.03-17.18,23.47,0,0,5.8-9.24,10.17-8.8,0,0-.01,10.61-8.14,14.18Z"/>
                <path class="st2"
                      d="M682.01,602.94c.09.46.3-27.2-22.58-23.71,0,0,4.33,16.82,15.43,25.78,0,0,.66-4.88-2.63-12.56,0,0,8.75,5.06,9.79,10.5Z"/>
                <path class="st2"
                      d="M694.25,578.15s18.61-8.38,6.95-28.36c0,0-12.92,6.49-12.24,24.31,0,0,1.81-5.33,7.9-10.5,0,0,3.81,9.6-2.62,14.55Z"/>
                <path class="st2"
                      d="M684.57,552.6s14.36-16.16-17.28-28.18c0,0-10.47,11.25,10.23,25.15,0,0,2.04-4.75-1.26-9.39,0,0,8.93,3.53,8.31,12.42Z"/>
                <path class="st2"
                      d="M679.71,567.23c.97.73-.85-10.34-22.01-18.32,0,0-5.46,15.49,18.44,24.66,0,0,.42-4.97-9.16-11.5,0,0,6.3.3,12.73,5.16Z"/>
            </g>
            <g>
                <path class="st2"
                      d="M429.18,715.66c1.94,1.29,1.39-23.25-24.23-44.06,0,0-13.98,28.3,17.17,48.82,2.33,1.6-6.46-12.06-11.24-27.1-2.75-10.05,5.84,14.07,18.3,22.34Z"/>
                <path class="st2"
                      d="M414.18,728.15c1.6-2.35-28.39-2.08-54.25,28.89,0,0,34.36,17.55,59.95-20.18,2-2.82-14.84,7.7-33.3,13.3-12.32,3.2,17.29-6.9,27.6-22Z"/>
                <path class="st2"
                      d="M380.92,711.6c1.92-1.66-24.02-8.24-53.36,12.62,0,0,25.66,22.94,56.3-3.82,2.36-1.98-14.55,3.28-31.74,3.92-11.36-.03,16.48-2.03,28.81-12.72Z"/>
                <path class="st2"
                      d="M349.62,695.43c6.18.5-20.28,23.97-46.24-8.06.91-2.18,19.86-17.93,42.91,3.7,0,0-21-2.85-23.49-.41,0,0,14.95,3.82,26.81,4.77Z"/>
                <path class="st2"
                      d="M388.37,699.16c2.57-1.68,2.91-17.55,1.9-20.59,0,0-3.48-13.29-14.76-21.78,0,0-15.81,22.08,2.98,44.05,0,0-3.49-11.84,1.9-20.59,0,0,.98,16.46,7.98,18.91Z"/>
                <path class="st2"
                      d="M356.22,676.03s-5.58-11.1-5.1-23.04c.48-11.94.35-.87.35-.87,0,0-6.45,16.2-4.17,20.37,0,0-12.97-14.19,1.76-35.16,0,0,18.79,14.58,7.16,38.72Z"/>
                <path class="st2"
                      d="M325.06,661.55c.36.16-12.78-17.73-31.92-11.41,0,0,3.88,23.57,30.09,20.96,0,0-3.6-7.61-13.62-11.09,0,0,1.11-4.9,15.46,1.54Z"/>
                <path class="st2"
                      d="M333.2,641.89s-4.66-8.28,1.83-20.56c0,0-6.59,1.39-8.39,14.39,0,0-8.58-18.81,14.65-27.21,0,0,.88,23.1-8.08,33.38Z"/>
                <path class="st2"
                      d="M313.85,631.41s1.16-12.24-25.49-20.37c0,0-4.42,24.09,23.57,29.72,0,0,.67-3.67-5.87-9.53,0,0-4.95-2.53-6.33-6.12,0,0,10.44,2.58,14.13,6.3Z"/>
                <path class="st2"
                      d="M305.12,607.04s-21.2-2.93-15.16-28.84c0,0,15.41,7.03,17.18,23.47,0,0-5.8-9.24-10.17-8.8,0,0,.01,10.61,8.14,14.18Z"/>
                <path class="st2"
                      d="M317.99,602.94c-.09.46-.3-27.2,22.58-23.71,0,0-4.33,16.82-15.43,25.78,0,0-.66-4.88,2.63-12.56,0,0-8.75,5.06-9.79,10.5Z"/>
                <path class="st2"
                      d="M305.75,578.15s-18.61-8.38-6.95-28.36c0,0,12.92,6.49,12.24,24.31,0,0-1.81-5.33-7.9-10.5,0,0-3.81,9.6,2.62,14.55Z"/>
                <path class="st2"
                      d="M315.43,552.6s-14.36-16.16,17.28-28.18c0,0,10.47,11.25-10.23,25.15,0,0-2.04-4.75,1.26-9.39,0,0-8.93,3.53-8.31,12.42Z"/>
                <path class="st2"
                      d="M320.29,567.23c-.97.73.85-10.34,22.01-18.32,0,0,5.46,15.49-18.44,24.66,0,0-.42-4.97,9.16-11.5,0,0-6.3.3-12.73,5.16Z"/>
            </g>
            <path class="st2"
                  d="M472.55,752.02h-22.58l-11.29-19.55,11.29-19.55h22.58l11.29,19.55-11.29,19.55ZM452.48,747.67h17.56l8.78-15.21-8.78-15.21h-17.56l-8.78,15.21,8.78,15.21Z"/>
            <path class="st2"
                  d="M513.23,780.99h-22.58l-11.29-19.55,11.29-19.55h22.58l11.29,19.55-11.29,19.55ZM493.16,776.64h17.56l8.78-15.21-8.78-15.21h-17.56l-8.78,15.21,8.78,15.21Z"/>
            <path class="st2"
                  d="M555.24,752.02h-22.58l-11.29-19.55,11.29-19.55h22.58l11.29,19.55-11.29,19.55ZM535.17,747.67h17.56l8.78-15.21-8.78-15.21h-17.56l-8.78,15.21,8.78,15.21Z"/>
        </g>
        <path d="M562.76,629.52c.03-.06.06-.11.08-.17"/>
        <path class="st0" d="M417.29,525.27"/>
        <g>
            <path class="st1" d="M498.01,527.95"/>
            <path
                d="M739.31,369.21s-23.73-45.94-112.05-37.98c0,0-53.82,9.24-106.8,43.06-52.98,33.82-72.3,44.33-72.3,44.33,0,0-103.41,70.01-158.93,30.09-55.52-39.92-7.37-71.11-7.37-71.11,0,0,64.93-44.07,137.99,5.09,0,0-31.19,23.22-45.69,31.11-14.49,7.88-36.53,11.1-36.53,11.1,0,0,39.33-1.36,61.03-14.41,21.7-13.05,43.57-21.19,43.57-21.19,0,0,14.49-7.88,23.14-6.95,0,0-63.91-69.17-173.51-35.86,0,0-94.43,45.09-21.02,104.09,73.4,59,207.84-39.15,207.84-39.15l67.56-39.24s67.73-37.75,118.37-30.4c50.64,7.35,58.78,29.22,58.78,29.22,0,0,23.48,38.57-37.3,60.35-60.77,21.78-116.38-20.6-116.38-20.6,0,0,30.94-30.6,84.93-34.92,0,0-7.6-6.16-69.91,6.58,0,0-27.82,14.01-64.35,25.12,0,0,60.6,44.67,85.35,48.74,0,0,62.13,17.55,110.27-13.64,48.15-31.19,23.31-73.4,23.31-73.4Z"/>
            <polygon points="494.75 690.47 501.82 716.59 508.34 690.47 494.75 690.47"/>
            <path
                d="M456.37,541.93s73.13,67.09,118.32,31.22c.89-.76,2.13-5.1,2.9-5.79,4.21-20.29,8.97-39.51,8.69-56.49-.78.5-3.63,2.06-4.54,2.48-19.5,12.96-79.79,44.78-125.37,28.58Z"/>
            <path
                d="M470.61,506.71s84.2,20.52,111.13,8.09c.93-.62,2.35-1.96,3.09-2.48-1.01-13.12-4.71-24.47-10.06-35.3-2.98-6.03-7.44-11.96-11.66-16.84-5.25,15.32-30.4,47.15-92.49,46.53Z"/>
            <path
                d="M560.46,623.51c-13.89,9.47-43.6,27.8-61.1,24.54,0,0,18.56,24.25,30.43,29.38.49-.49.97-.9,1.45-1.45,12.2-16.77,21.73-34.76,29.22-52.47Z"/>
            <path
                d="M481.96,600.59s54.13,31.1,78.25,23.26c9.67-18.21,12.49-36.85,17.38-53.59-.81.73.97-.74.14-.08-18,15.33-60.36,43.26-95.77,30.42Z"/>
            <path class="st4"
                  d="M500.1,428.31c-49.14,0-87.63,39.76-87.63,90.52,0,2.12,3.99,32.95,12.98,67.66,11.99,46.3,26.96,78.25,44.49,94.97,9.33,8.89,19.4,13.39,29.99,13.39.05,0,.1,0,.14,0,.09,0,.17,0,.26,0,10.58,0,20.65-4.49,29.98-13.37,43.18-41.1,57.42-161.57,57.42-162.65,0-50.76-38.49-90.52-87.63-90.52ZM524.84,676.69c-7.46,6.95-15.35,10.59-23.47,10.89h0c-.42.02-.84.02-1.25.02-.43,0-.86,0-1.29-.03h0c-7.96-.29-15.68-3.83-22.99-10.52-41.19-37.69-56.08-157.17-56.12-158.22,0-46.7,35.31-83.28,80.39-83.28s80.38,36.58,80.39,83.27c-.19,8.44-16.61,121.51-55.64,157.86Z"/>
            <path class="st4"
                  d="M534.02,312.3h-10.68c9.62,11.48,11.13,19.65,9.82,25.17-3.46,14.58-29.06,23.2-39.23,22.99-16.3-1.78-36.2-6.51-39.76-18.88-2.42-8.42,2.67-19.12,10.18-29.28h-10.4c-6.67,10.38-10.79,21.57-7.91,31.61,3.93,13.67,19.92,22.08,47.52,25.01l.51.06.51-.07c2.26.46,41.2-6,46.78-29.47,1.98-8.3-.47-17.31-7.36-27.13Z"/>
            <g>
                <path
                    d="M576.88,279.67c0-.44-.08-.86-.23-1.25l-1.76-8.07,26.98-6.58-106.28-13.62-105.41,13.62,58.62,14.41v34.95h91.32v-34.3l27.82-6.78,1.71,7.85c.12,1.89,1.69,3.39,3.61,3.39s3.62-1.62,3.62-3.62ZM495.6,254.8l81.04,10.38-81.04,19.75-80.38-19.75,80.37-10.38ZM535.52,308.52h-82.11v-29.21l42.18,10.37,39.92-9.73v28.57Z"/>
                <path
                    d="M571.61,283.82c1,21.11,3.18,17.89,3.65,18.13l10.16-4.58c-.32-5.44-8.35-15.05-8.35-15.05-1.81,3.07-5.46,1.5-5.46,1.5Z"/>
            </g>
        </g>
    </g>
</svg>
