<svg width="24" height="24" viewBox="0 0 24 24" fill="none" xmlns="http://www.w3.org/2000/svg">
<path d="M15.9307 7.57812L24 9.16699L18.3594 15.4395L19.416 24L12 20.2988L4.58398 24L5.64062 15.4395L0 9.16699L8.06934 7.57812L12 0L15.9307 7.57812ZM14.5557 8.0166C14.4706 8.02143 14.36 8.03172 14.2646 8.04102C14.1618 8.05104 14.0737 8.05985 14.0127 8.06348C13.8399 8.0737 13.6895 8.09454 13.5723 8.10742C13.512 8.11405 13.4521 8.11927 13.3877 8.12305L13.1758 8.12793C12.7166 8.1211 12.0754 8.0918 11.5918 8.0918C10.8581 8.0918 10.2638 8.09118 9.78906 8.14746C9.36284 8.19801 8.9873 8.29838 8.65723 8.51562L8.51855 8.61621C8.35618 8.74513 8.20987 8.89444 8.08203 9.05957L7.95996 9.23047C7.70764 9.61519 7.60071 10.0563 7.5498 10.5752C7.49957 11.0877 7.5 11.7324 7.5 12.543V17.3926L7.50879 17.5762C7.59369 18.4889 8.30281 19.2676 9.25 19.2676H16L16.1006 19.2568C16.3284 19.2103 16.4998 19.0091 16.5 18.7676C16.5 18.5259 16.3285 18.3239 16.1006 18.2773L16 18.2676H15.5V16.248C15.8621 15.9542 16.1453 15.5622 16.3154 15.1104L16.3809 14.9053C16.4365 14.6963 16.4651 14.4737 16.4805 14.2266C16.5007 13.9008 16.5 13.4983 16.5 12.9922V8.55664C16.5 8.32447 16.3412 8.12771 16.124 8.07227L16.0283 8.05664L15.5518 8.03027C15.2938 8.01574 15.0735 8.00322 14.8213 8.00684L14.5557 8.0166ZM14.5 18.2676H9.25C8.90271 18.2676 8.54695 17.9633 8.50391 17.4893L8.5 17.3926C8.5 17.0153 8.76763 16.792 9 16.792H13C13.4584 16.792 13.8299 16.7922 14.1318 16.7695C14.26 16.7599 14.3821 16.7444 14.5 16.7227V18.2676ZM14.6123 9.01465C14.9252 8.99692 15.1506 9.00891 15.4951 9.02832H15.5V12.9922C15.5 13.5109 15.4993 13.8773 15.4814 14.165C15.4682 14.3783 15.4469 14.5291 15.415 14.6484L15.3799 14.7578C15.2399 15.1295 14.9919 15.4229 14.6904 15.6006L14.5576 15.6699C14.4495 15.7191 14.3067 15.7537 14.0566 15.7725C13.8008 15.7916 13.4733 15.792 13 15.792H9C8.82192 15.792 8.65444 15.8251 8.5 15.8828V12.543C8.5 11.7123 8.50059 11.1252 8.54492 10.6729C8.58861 10.2275 8.67021 9.96986 8.7959 9.77832L8.87305 9.67188C8.95281 9.56885 9.04274 9.47713 9.14062 9.39941L9.27344 9.31152C9.3381 9.27626 9.41264 9.24792 9.5 9.22168V11.0674C9.50011 11.3434 9.72392 11.5674 10 11.5674C10.2761 11.5674 10.4999 11.3434 10.5 11.0674V9.10254C10.8015 9.0934 11.1585 9.0918 11.5918 9.0918C12.0845 9.0918 12.6333 9.12008 13.1602 9.12793L13.4463 9.12109C13.5316 9.11609 13.6089 9.10956 13.6816 9.10156C13.8306 9.08519 13.932 9.06976 14.0713 9.06152C14.1558 9.05652 14.2662 9.04541 14.3613 9.03613C14.4641 9.02612 14.5519 9.01807 14.6123 9.01465Z" fill="#820000"/>
</svg>
