<svg width="185" height="185" viewBox="0 0 185 185" fill="none" xmlns="http://www.w3.org/2000/svg">
<g opacity="0.2">
<path d="M15.4141 169.34C22.7351 169.34 29.9719 170.009 36.0603 165.264C42.0257 160.614 51.5125 160.768 57.2436 165.607C63.4933 170.884 75.2906 170.735 81.6817 165.754C87.8821 160.921 97.2837 160.364 103.494 165.607C110.308 171.361 121.791 170.54 128.56 165.264C134.526 160.614 144.013 160.768 149.744 165.607C155.264 170.269 162.795 169.34 169.581 169.34" stroke="white" stroke-width="10" stroke-linecap="round" stroke-linejoin="round"/>
<path d="M15.4141 138.506C22.7351 138.506 29.9719 139.175 36.0603 134.43C42.0257 129.78 51.5125 129.934 57.2436 134.774C63.4933 140.051 75.2906 139.901 81.6817 134.92C87.8821 130.087 97.2837 129.53 103.494 134.774C110.308 140.527 121.791 139.706 128.56 134.43C134.526 129.78 144.013 129.934 149.744 134.774C155.264 139.435 162.795 138.506 169.581 138.506" stroke="white" stroke-width="10" stroke-linecap="round" stroke-linejoin="round"/>
<path d="M15.4141 107.916H169.581" stroke="white" stroke-width="10" stroke-linecap="round" stroke-linejoin="round"/>
<path d="M46.25 107.917V23.125M46.25 23.125C44.3229 28.2639 37 42.3958 23.125 42.3958M46.25 23.125C48.1771 28.2639 55.5 42.3958 69.375 42.3958M23.125 65.5208C37 65.5208 44.3229 51.3889 46.25 46.25C48.1771 51.3889 55.5 65.5208 69.375 65.5208" stroke="white" stroke-width="10" stroke-linecap="round" stroke-linejoin="round"/>
<circle cx="134.896" cy="34.6869" r="19.2708" stroke="white" stroke-width="10" stroke-linecap="round" stroke-linejoin="round"/>
</g>
</svg>
