<svg width="185" height="185" viewBox="0 0 185 185" fill="none" xmlns="http://www.w3.org/2000/svg">
<g opacity="0.2">
<circle cx="50.1016" cy="127.188" r="34.6875" stroke="white" stroke-width="10" stroke-linecap="round" stroke-linejoin="round"/>
<ellipse cx="146.453" cy="138.75" rx="23.125" ry="23.125" stroke="white" stroke-width="10" stroke-linecap="round" stroke-linejoin="round"/>
<path d="M15.4141 80.9333C25.0764 73.6756 37.0867 69.375 50.1016 69.375C82.0305 69.375 107.914 95.2585 107.914 127.188C107.914 127.927 107.9 128.663 107.873 129.396C107.698 134.058 107.61 136.389 108.747 137.57C109.884 138.75 111.985 138.75 116.188 138.75H123.331" stroke="white" stroke-width="10" stroke-linecap="round" stroke-linejoin="round"/>
<path d="M100.203 69.375L124.143 73.8638C142.187 77.2471 151.21 78.9387 156.54 85.3611C161.87 91.7835 161.87 101.015 161.87 119.479" stroke="white" stroke-width="10" stroke-linecap="round" stroke-linejoin="round"/>
<path d="M154.161 92.5L146.453 92.5" stroke="white" stroke-width="10" stroke-linecap="round" stroke-linejoin="round"/>
<path d="M100.203 96.3542V73.9004C100.203 70.8995 99.7651 67.9148 98.9028 65.0405L88.6406 23.125M30.8281 69.375V23.125" stroke="white" stroke-width="10" stroke-linecap="round" stroke-linejoin="round"/>
<path d="M23.125 23.125L100.208 23.125" stroke="white" stroke-width="10" stroke-linecap="round" stroke-linejoin="round"/>
<path d="M138.75 73.2292V61.6667C138.75 53.1523 145.652 46.25 154.167 46.25" stroke="white" stroke-width="10" stroke-linecap="round" stroke-linejoin="round"/>
<path d="M53.9531 69.375L53.9531 23.125" stroke="white" stroke-width="10" stroke-linecap="round" stroke-linejoin="round"/>
</g>
</svg>
