<svg width="32" height="32" viewBox="0 0 32 32" fill="none" xmlns="http://www.w3.org/2000/svg">
<path d="M3.33594 15.9999C3.33594 10.0288 3.33594 7.04323 5.19093 5.18824C7.04592 3.33325 10.0315 3.33325 16.0026 3.33325C21.9737 3.33325 24.9593 3.33325 26.8143 5.18824C28.6693 7.04323 28.6693 10.0288 28.6693 15.9999C28.6693 21.971 28.6693 24.9566 26.8143 26.8116C24.9593 28.6666 21.9737 28.6666 16.0026 28.6666C10.0315 28.6666 7.04592 28.6666 5.19093 26.8116C3.33594 24.9566 3.33594 21.971 3.33594 15.9999Z" stroke="#141B34" stroke-width="1.5"/>
<path d="M16.3255 22.6665V15.9998C16.3255 15.3713 16.3255 15.057 16.1303 14.8618C15.935 14.6665 15.6207 14.6665 14.9922 14.6665" stroke="#141B34" stroke-width="1.5" stroke-linecap="round" stroke-linejoin="round"/>
<path d="M15.9919 10.6665H16.0039" stroke="#141B34" stroke-width="2" stroke-linecap="round" stroke-linejoin="round"/>
</svg>
