<svg width="32" height="32" viewBox="0 0 32 32" fill="none" xmlns="http://www.w3.org/2000/svg">
<path d="M28.0026 18.6886C27.9418 17.366 27.038 17.3335 25.8121 17.3335C23.9235 17.3335 23.6104 17.7847 23.6104 19.5557V21.7779C23.6104 23.549 23.9235 24.0002 25.8121 24.0002C27.038 24.0002 27.9417 23.9677 28.0026 22.6451M13.7291 20.6668C13.7291 22.5078 12.2543 24.0002 10.435 24.0002C10.0245 24.0002 9.81925 24.0002 9.66637 23.9108C9.30034 23.697 9.33696 23.2641 9.33696 22.8891V18.4446C9.33696 18.0695 9.30034 17.6367 9.66637 17.4228C9.81925 17.3335 10.0245 17.3335 10.435 17.3335C12.2543 17.3335 13.7291 18.8259 13.7291 20.6668ZM18.6693 24.0002C17.634 24.0002 17.1164 24.0002 16.7948 23.6747C16.4732 23.3493 16.4732 22.8255 16.4732 21.7779V19.5557C16.4732 18.5082 16.4732 17.9844 16.7948 17.6589C17.1164 17.3335 17.634 17.3335 18.6693 17.3335C19.7045 17.3335 20.2221 17.3335 20.5437 17.6589C20.8653 17.9844 20.8653 18.5082 20.8653 19.5557V21.7779C20.8653 22.8255 20.8653 23.3493 20.5437 23.6747C20.2221 24.0002 19.7045 24.0002 18.6693 24.0002Z" stroke="#252422" stroke-width="1.5" stroke-linecap="round"/>
<path d="M19.9974 29.3335H14.3004C9.95215 29.3335 7.77802 29.3335 6.26816 28.2697C5.83556 27.9649 5.4515 27.6035 5.12766 27.1963C3.9974 25.7753 3.9974 23.729 3.9974 19.6365V16.2426C3.9974 12.2917 3.9974 10.3162 4.62265 8.7385C5.62782 6.20206 7.75358 4.20134 10.4485 3.2553C12.1249 2.66683 14.2238 2.66683 18.4216 2.66683C20.8204 2.66683 22.0198 2.66683 22.9777 3.0031C24.5177 3.54369 25.7324 4.68696 26.3068 6.13635C26.6641 7.03792 26.6641 8.16675 26.6641 10.4244V13.3335" stroke="#252422" stroke-width="1.5" stroke-linecap="round" stroke-linejoin="round"/>
<path d="M4.0026 16C4.0026 13.5454 5.99245 11.5556 8.44705 11.5556C9.33476 11.5556 10.3813 11.7111 11.2444 11.4798C12.0113 11.2744 12.6103 10.6754 12.8158 9.90849C13.047 9.04538 12.8915 7.99882 12.8915 7.11111C12.8915 4.65651 14.8813 2.66667 17.3359 2.66667" stroke="#252422" stroke-width="1.5" stroke-linecap="round" stroke-linejoin="round"/>
</svg>
