<svg width="20" height="20" viewBox="0 0 20 20" fill="none" xmlns="http://www.w3.org/2000/svg">
<path d="M2.11087 12.3081C1.93366 13.4698 2.72594 14.2761 3.69598 14.678C7.41494 16.2186 12.5903 16.2186 16.3092 14.678C17.2793 14.2761 18.0715 13.4698 17.8943 12.3081C17.7854 11.5942 17.2469 10.9997 16.8479 10.4192C16.3253 9.64947 16.2734 8.80994 16.2733 7.91675C16.2733 4.46497 13.4658 1.66675 10.0026 1.66675C6.53938 1.66675 3.73188 4.46497 3.73188 7.91675C3.7318 8.80994 3.67987 9.64947 3.15728 10.4192C2.7583 10.9997 2.21978 11.5942 2.11087 12.3081Z" stroke="#FAF9F6" stroke-width="1.5" stroke-linecap="round" stroke-linejoin="round"/>
<path d="M6.67188 15.8335C7.05395 17.2712 8.40148 18.3335 10.0052 18.3335C11.6089 18.3335 12.9565 17.2712 13.3385 15.8335" stroke="#FAF9F6" stroke-width="1.5" stroke-linecap="round" stroke-linejoin="round"/>
</svg>
