<svg width="80" height="80" viewBox="0 0 80 80" fill="none" xmlns="http://www.w3.org/2000/svg">
<path d="M72.8309 32.5095L72.8689 32.5285C73.943 33.0323 73.7529 34.0874 73.7529 34.0969V34.1349L71.5001 35.4086L71.5191 35.2471C71.6522 34.249 70.7682 33.8688 70.7302 33.8498L70.5781 33.7832L72.8309 32.5095ZM73.6008 34.0304C73.6198 33.8498 73.6579 33.0989 72.8404 32.6901L70.9298 33.7737C71.1865 33.9258 71.7283 34.3441 71.6998 35.114L73.6103 34.0304H73.6008Z" fill="#FAF9F6"/>
<path d="M73.6746 34.0017H73.7127C73.7222 34.0207 74.7202 34.4009 74.6062 35.5796V35.6176L72.3439 36.8913L72.3629 36.7297C72.3629 36.6917 72.496 35.7317 71.574 35.3324L71.4219 35.2659L73.6746 33.9922V34.0017ZM74.4446 35.5225C74.5206 34.61 73.8457 34.2488 73.6841 34.1823L71.7736 35.2659C72.4485 35.6366 72.534 36.3115 72.534 36.6062L74.4446 35.5225Z" fill="#FAF9F6"/>
<path d="M72.6029 32.3955L72.8025 32.5951L72.6884 32.7092L72.5744 32.5951L70.5212 33.7643C71.4527 34.4962 71.4623 35.038 71.4528 35.1806L71.6143 35.4657C72.1656 35.8079 72.3177 36.6729 72.3558 37.0056L74.4374 35.8269L74.3899 35.6368L74.542 35.5988L74.618 35.903L72.2132 37.2622V37.1387C72.2132 37.1292 72.1181 35.9505 71.5098 35.5893H71.4908C71.4908 35.5798 71.2721 35.1996 71.2721 35.1996V35.1711C71.2721 35.1711 71.3957 34.6198 70.3216 33.8213L70.2266 33.7453L72.6029 32.405V32.3955Z" fill="#FAF9F6"/>
<path d="M36.6414 70.6162C36.5274 70.6162 36.4323 70.6543 36.3468 70.7398C36.2707 70.8159 36.2232 70.9204 36.2232 71.0345H35.6719C35.6719 70.7683 35.7669 70.5402 35.957 70.3501C36.1471 70.16 36.3753 70.0649 36.6414 70.0649C36.9076 70.0649 37.1357 70.16 37.3258 70.3501C37.5159 70.5402 37.611 70.7683 37.611 71.0345V71.3101C37.611 71.5763 37.5159 71.8044 37.3258 71.9945C37.1357 72.1846 36.9076 72.2797 36.6414 72.2797C36.3753 72.2797 36.4323 72.3177 36.3468 72.4033C36.2707 72.4793 36.2232 72.5839 36.2232 72.6979V72.8405H37.4589V73.3918H35.6719V72.7074C35.6719 72.4413 35.7669 72.2132 35.957 72.023C36.1471 71.8329 36.3753 71.7379 36.6414 71.7379C36.9076 71.7379 36.8505 71.6999 36.9361 71.6143C37.0121 71.5383 37.0597 71.4337 37.0597 71.3196V71.044C37.0597 70.9299 37.0216 70.8349 36.9361 70.7493C36.8505 70.6638 36.7555 70.6258 36.6414 70.6258V70.6162Z" fill="#FAF9F6"/>
<path d="M39.5888 70.5883L39.2656 70.5313C39.3227 70.1796 39.4462 69.1911 39.3322 68.8489C39.3227 68.8108 39.3036 68.7918 39.3036 68.7918L39.5318 68.5542C39.5793 68.6017 39.6078 68.6588 39.6363 68.7348C39.7979 69.2196 39.5983 70.4363 39.5793 70.5693L39.5888 70.5883Z" fill="#FAF9F6"/>
<path d="M39.5815 68.6154L39.3672 68.8699L39.7016 69.1515L39.9159 68.897L39.5815 68.6154Z" fill="#FAF9F6"/>
<path d="M39.6275 68.7444C39.6275 68.7444 39.4565 69.0771 39.8842 69.3433L40.4925 69.6094C40.1503 68.5733 39.6275 68.7444 39.6275 68.7444Z" fill="#FAF9F6"/>
<path d="M39.5367 73.3638C39.0805 73.3638 38.6908 73.2023 38.3676 72.8791C38.0444 72.5559 37.8828 72.1662 37.8828 71.7099C37.8828 71.2537 38.0064 70.8259 38.3676 70.5408C38.8619 70.1605 39.128 70.5313 39.5367 70.5598C39.955 70.5883 40.2021 70.1605 40.7059 70.5408C41.0671 70.8164 41.1907 71.2537 41.1907 71.7099C41.1907 72.1662 41.0291 72.5559 40.7059 72.8791C40.3827 73.2023 39.993 73.3638 39.5367 73.3638ZM39.5367 72.8125C39.8409 72.8125 40.0976 72.708 40.3162 72.4893C40.5253 72.2707 40.6394 72.0141 40.6394 71.7099C40.6394 71.4057 40.5348 71.1491 40.3162 70.9305C40.0976 70.7119 39.8409 70.959 39.5367 70.959C39.2326 70.959 38.9759 70.7119 38.7573 70.9305C38.5387 71.1491 38.4341 71.4057 38.4341 71.7099C38.4341 72.0141 38.5387 72.2707 38.7573 72.4893C38.9759 72.708 39.2326 72.8125 39.5367 72.8125Z" fill="#FAF9F6"/>
<path d="M42.4227 70.607C42.3086 70.607 42.2136 70.645 42.128 70.7305C42.052 70.8066 42.0044 70.9111 42.0044 71.0252H41.4531C41.4531 70.7591 41.5482 70.5309 41.7383 70.3408C41.9284 70.1507 42.1565 70.0557 42.4227 70.0557C42.6888 70.0557 42.9169 70.1507 43.1071 70.3408C43.2972 70.5309 43.3922 70.7591 43.3922 71.0252V71.3009C43.3922 71.567 43.2972 71.7951 43.1071 71.9852C42.9169 72.1754 42.6888 72.2704 42.4227 72.2704C42.1565 72.2704 42.2136 72.3084 42.128 72.394C42.052 72.47 42.0044 72.5746 42.0044 72.6886V72.8312H43.2401V73.3825H41.4531V72.6981C41.4531 72.432 41.5482 72.2039 41.7383 72.0138C41.9284 71.8237 42.1565 71.7286 42.4227 71.7286C42.6888 71.7286 42.6318 71.6906 42.7173 71.605C42.7934 71.529 42.8409 71.4244 42.8409 71.3104V71.0347C42.8409 70.9206 42.8029 70.8256 42.7173 70.74C42.6318 70.6545 42.5367 70.6165 42.4227 70.6165V70.607Z" fill="#FAF9F6"/>
<path d="M44.618 70.607C44.5039 70.607 44.4089 70.645 44.3233 70.7305C44.2473 70.8066 44.1997 70.9111 44.1997 71.0252H43.6484C43.6484 70.7591 43.7435 70.5309 43.9336 70.3408C44.1237 70.1507 44.3518 70.0557 44.618 70.0557C44.8841 70.0557 45.1123 70.1507 45.3024 70.3408C45.4925 70.5309 45.5875 70.7591 45.5875 71.0252V71.3009C45.5875 71.567 45.4925 71.7951 45.3024 71.9852C45.1123 72.1754 44.8841 72.2704 44.618 72.2704C44.3518 72.2704 44.4089 72.3084 44.3233 72.394C44.2473 72.47 44.1997 72.5746 44.1997 72.6886V72.8312H45.4354V73.3825H43.6484V72.6981C43.6484 72.432 43.7435 72.2039 43.9336 72.0138C44.1237 71.8237 44.3518 71.7286 44.618 71.7286C44.8841 71.7286 44.8271 71.6906 44.9126 71.605C44.9887 71.529 45.0362 71.4244 45.0362 71.3104V71.0347C45.0362 70.9206 44.9982 70.8256 44.9126 70.74C44.8271 70.6545 44.732 70.6165 44.618 70.6165V70.607Z" fill="#FAF9F6"/>
<path d="M59.4914 6.2369L78.9868 39.9999L59.4914 73.7628H20.51L1.01459 39.9999L20.51 6.2369H59.4914ZM59.7861 5.71411H20.1964L0.40625 39.9999L20.1964 74.2856H59.7861L79.5762 39.9999L59.7861 5.71411Z" fill="#FAF9F6"/>
<path d="M5.64845 35.2093L5.79103 34.9622L7.95825 36.2169L7.77765 36.5305L5.81955 35.3994L7.45447 37.0914C7.45447 37.1009 7.29288 37.3765 7.29288 37.3765L7.18832 37.5666L4.89753 36.9963L6.86514 38.1274L6.68454 38.4411L4.50781 37.1864L4.65039 36.9298L4.68841 36.8632L4.92605 36.4545L6.89365 36.9488L5.48686 35.4945L5.61994 35.2663L5.65796 35.1998L5.64845 35.2093Z" fill="#FAF9F6"/>
<path d="M8.65498 34.5153L8.90212 34.5819L8.07516 36.0172L5.89844 34.7625L6.02201 34.5533L6.16459 34.3062L6.7254 33.3271L6.906 33.5078L6.3737 34.4298L7.11512 34.8575L7.57138 34.0686L7.69495 34.2207L7.27671 34.9526L8.12269 35.4468L8.65498 34.5248V34.5153Z" fill="#FAF9F6"/>
<path d="M7.4974 32.5004C7.74454 32.6905 7.96316 32.8521 8.13426 32.9851C8.30535 33.1182 8.47645 33.2513 8.63804 33.3844C8.79963 33.5174 8.9232 33.6125 9.00875 33.6885C9.08479 33.7551 9.14182 33.8216 9.16083 33.8882C9.17984 33.9547 9.19885 34.0212 9.19885 34.0878C9.19885 34.1543 9.18935 34.2113 9.17034 34.2589C9.15133 34.3064 9.12281 34.3634 9.08479 34.43C9.04677 34.3444 8.99924 34.2779 8.95172 34.2018C8.90419 34.1258 8.81864 34.0497 8.71408 33.9547C8.65705 33.8977 8.54299 33.8026 8.37189 33.6695C8.2008 33.5365 8.0297 33.3939 7.83009 33.2418C7.63998 33.0897 7.40235 32.8996 7.11719 32.6715V32.6525C7.12669 32.6525 7.28828 32.3768 7.28828 32.3768L7.57344 31.8825L7.81108 31.4738L7.83959 31.4263L10.0163 32.681L9.75967 33.1277L7.80157 31.9966L7.51641 32.4909L7.4974 32.5004Z" fill="#FAF9F6"/>
<path d="M8.86902 29.63L8.97358 29.4399L11.1408 30.6946L10.8842 31.1414L9.21122 30.1719L10.3709 32.0254L10.1998 32.3201L10.1047 32.4816L7.9375 31.2269L8.19414 30.7802L9.81005 31.7117L8.68842 29.9152L8.70743 29.8867L8.85952 29.6205L8.86902 29.63Z" fill="#FAF9F6"/>
<path d="M9.98725 27.7L10.1679 27.8806L9.88269 28.3748L11.8408 29.506L11.5841 29.9527L9.62605 28.8216L9.34089 29.3159L9.09375 29.2493L9.40743 28.698L9.66407 28.2513L9.97775 27.7H9.98725Z" fill="#FAF9F6"/>
<path d="M10.6042 26.5026C10.7372 26.265 10.8893 26.1034 11.0604 26.0083C11.222 25.9133 11.4121 25.8848 11.6117 25.9228C11.8113 25.9608 12.049 26.0464 12.2961 26.1984C12.5528 26.341 12.7429 26.4931 12.8759 26.6547C13.009 26.8163 13.0756 26.9874 13.0756 27.1775C13.0756 27.3676 13.009 27.5767 12.8759 27.8144C12.7429 28.052 12.5908 28.2136 12.4292 28.3086C12.2676 28.4037 12.0775 28.4322 11.8779 28.3942C11.6783 28.3562 11.4406 28.2706 11.1935 28.1185C10.9464 27.9759 10.7467 27.8239 10.6137 27.6623C10.4806 27.5007 10.4141 27.3296 10.4141 27.1395C10.4141 26.9494 10.4806 26.7402 10.6137 26.5026H10.6042ZM12.8474 27.1585C12.8284 27.0634 12.7239 26.9684 12.5528 26.8638C12.3817 26.7593 12.2106 26.6737 12.0395 26.6072C11.7448 26.4741 11.5167 26.4266 11.3551 26.4551C11.1745 26.4931 11.0224 26.5692 10.9178 26.6832C10.8323 26.7593 10.7658 26.8448 10.7087 26.9304C10.6517 27.0159 10.6232 27.0919 10.6232 27.1585C10.6422 27.2535 10.7468 27.3486 10.9274 27.4531C11.108 27.5577 11.279 27.6433 11.4406 27.7098C11.7353 27.8334 11.9634 27.8904 12.125 27.8619C12.3056 27.8239 12.4482 27.7478 12.5623 27.6242C12.6478 27.5482 12.7144 27.4722 12.7714 27.3771C12.8284 27.2821 12.8569 27.2155 12.8569 27.1395L12.8474 27.1585Z" fill="#FAF9F6"/>
<path d="M12.1266 23.9739L12.2787 23.7078L14.4554 24.9625L14.1987 25.4092L12.1836 24.2496L11.7464 25.01L13.7615 26.1696L13.5048 26.6164L11.3281 25.3617L11.4517 25.1526L11.5943 24.9054L12.0315 24.145L12.1361 23.9549L12.1266 23.9739Z" fill="#FAF9F6"/>
<path d="M12.901 22.529C13.0341 22.2913 13.1862 22.1298 13.3573 22.0347C13.5189 21.9397 13.709 21.9111 13.9086 21.9492C14.1082 21.9872 14.3459 22.0727 14.593 22.2248C14.8496 22.3674 15.0397 22.5195 15.1728 22.6811C15.3059 22.8427 15.3724 23.0138 15.3724 23.2039C15.3724 23.394 15.3059 23.6031 15.1728 23.8407C15.0397 24.0784 14.8877 24.2399 14.7261 24.335C14.5645 24.43 14.3744 24.4586 14.1748 24.4205C13.9751 24.3825 13.7375 24.297 13.4904 24.1449C13.2432 24.0023 13.0436 23.8502 12.9106 23.6886C12.7775 23.527 12.7109 23.3559 12.7109 23.1658C12.7109 22.9757 12.7775 22.7666 12.9106 22.529H12.901ZM15.1538 23.1753C15.1348 23.0803 15.0302 22.9852 14.8591 22.8807C14.688 22.7761 14.517 22.6906 14.3459 22.624C14.0512 22.491 13.8231 22.4434 13.6615 22.4719C13.4809 22.51 13.3288 22.586 13.2242 22.7001C13.1387 22.7761 13.0721 22.8617 13.0151 22.9472C12.9581 23.0328 12.9296 23.1088 12.9296 23.1753C12.9486 23.2704 13.0531 23.3655 13.2337 23.47C13.4143 23.5746 13.5854 23.6601 13.747 23.7267C14.0417 23.8502 14.2698 23.9073 14.4314 23.8787C14.612 23.8407 14.7546 23.7647 14.8686 23.6411C14.9542 23.5651 15.0207 23.489 15.0778 23.394C15.1348 23.2989 15.1633 23.2324 15.1633 23.1563L15.1538 23.1753Z" fill="#FAF9F6"/>
<path d="M14.263 20.7614C14.5102 20.9515 14.7288 21.1131 14.8999 21.2461C15.071 21.3792 15.2421 21.5123 15.4037 21.6454C15.5653 21.7784 15.6888 21.8735 15.7744 21.9495C15.8504 22.0161 15.9074 22.0826 15.9265 22.1491C15.9455 22.2157 15.9645 22.2822 15.9645 22.3487C15.9645 22.4153 15.955 22.4723 15.936 22.5198C15.917 22.5674 15.8884 22.6244 15.8504 22.6909C15.8124 22.6054 15.7649 22.5389 15.7173 22.4628C15.6698 22.3868 15.5843 22.3107 15.4797 22.2157C15.4227 22.1586 15.3086 22.0636 15.1375 21.9305C14.9664 21.7974 14.7953 21.6549 14.5957 21.5028C14.4056 21.3507 14.168 21.1606 13.8828 20.9325V20.9134C13.8923 20.9134 14.0539 20.6378 14.0539 20.6378L14.3391 20.1435L14.5767 19.7348L14.6052 19.6873L16.7819 20.942L16.5253 21.3887L14.5672 20.2576L14.282 20.7519L14.263 20.7614Z" fill="#FAF9F6"/>
<path d="M15.709 18.9358C15.8231 18.8027 15.9561 18.7362 16.0987 18.7267C16.2413 18.7172 16.3839 18.7362 16.536 18.7932C16.6785 18.8503 16.8021 18.9073 16.9067 18.9738C17.0588 19.0689 17.2013 19.202 17.3154 19.3826C17.4295 19.5727 17.458 19.7533 17.4009 19.9339C17.3724 20.0004 17.3344 20.086 17.2774 20.1715C17.2203 20.2571 17.1633 20.3521 17.1063 20.4377C17.0492 20.5232 16.9732 20.6278 16.8877 20.7418L14.7109 19.4871L14.9486 19.0784L15.6139 19.4586C15.5949 19.221 15.633 19.0499 15.7185 18.9358H15.709ZM16.6595 19.3731C16.6405 19.3636 16.612 19.3445 16.593 19.335C16.5074 19.278 16.4124 19.2305 16.2983 19.1734C16.1938 19.1259 16.0892 19.0879 15.9942 19.0879C15.8991 19.0879 15.8326 19.1259 15.7755 19.221C15.7375 19.3065 15.709 19.4111 15.709 19.5156L17.0207 20.2761C17.0683 20.2285 17.1063 20.1905 17.1348 20.143C17.1728 20.0765 17.1728 19.9909 17.1158 19.8863C17.0588 19.7818 16.9922 19.6867 16.9067 19.5917C16.8211 19.4966 16.7356 19.4301 16.6595 19.3826V19.3731Z" fill="#FAF9F6"/>
<path d="M18.49 17.3677H18.5375C18.6326 17.6244 18.5851 17.9285 18.3855 18.2707C18.2524 18.5084 18.1003 18.67 17.9292 18.765C17.7581 18.8601 17.5775 18.8886 17.3779 18.8506C17.1783 18.8125 16.9406 18.727 16.6935 18.5749C16.4464 18.4323 16.2467 18.2802 16.1137 18.1186C15.9806 17.9571 15.9141 17.786 15.9141 17.5958C15.9141 17.4057 15.9806 17.1966 16.1137 16.959C16.3038 16.6263 16.5319 16.4362 16.779 16.3887L16.9692 16.8734C16.8741 16.8925 16.7695 16.921 16.6745 16.978C16.5699 17.035 16.4939 17.0826 16.4274 17.1491C16.3418 17.2251 16.2753 17.3107 16.2182 17.3962C16.1612 17.4818 16.1327 17.5578 16.1327 17.6244C16.1517 17.7194 16.2563 17.8145 16.4274 17.919C16.5984 18.0236 16.7695 18.1091 16.9406 18.1757C17.2353 18.2992 17.4634 18.3563 17.625 18.3278C17.8056 18.2897 17.9577 18.2137 18.0623 18.0996C18.1383 18.0236 18.2239 17.9285 18.2999 17.805C18.3759 17.6814 18.4425 17.5388 18.49 17.3772V17.3677Z" fill="#FAF9F6"/>
<path d="M19.4043 15.7422C19.4709 15.7422 19.5469 15.7232 19.6039 15.7137C19.661 15.7042 19.7465 15.6757 19.8321 15.6567C19.7845 15.7612 19.7465 15.8468 19.699 15.9228C19.6515 15.9893 19.6039 16.0559 19.5374 16.1034C19.4709 16.1604 19.3948 16.189 19.3093 16.1985C19.2618 16.1985 19.1667 16.208 19.0146 16.2175C18.872 16.227 18.7104 16.2365 18.5393 16.2555C18.3683 16.265 18.2257 16.2745 18.1116 16.284L19.1287 16.8733L18.872 17.3201L16.6953 16.0654L16.952 15.6186L17.8645 16.1414L17.3322 14.9533L17.5318 14.6016L18.0831 15.8468C18.1781 15.8468 18.3112 15.8278 18.4918 15.8182C18.6724 15.8087 18.853 15.7897 19.0241 15.7802C19.1952 15.7707 19.3188 15.7612 19.3853 15.7517L19.4043 15.7422Z" fill="#FAF9F6"/>
<path d="M18.6971 12.5959L18.8017 12.4058L20.9689 13.6605L20.7123 14.1072L19.0393 13.1377L20.199 14.9912L20.0279 15.2859L19.9328 15.4475L17.7656 14.1928L18.0223 13.746L19.6382 14.6775L18.5165 12.881L18.5356 12.8525L18.6876 12.5864L18.6971 12.5959Z" fill="#FAF9F6"/>
<path d="M19.3831 10.5523C19.4021 10.6663 19.3926 10.7899 19.3546 10.9325C19.3165 11.0656 19.2405 11.2176 19.1264 11.3697C19.0314 11.4933 18.9363 11.5883 18.8508 11.6644L18.6797 11.3507C18.8983 11.2462 19.0599 11.1131 19.155 10.9515C19.25 10.7994 19.307 10.6568 19.3261 10.5523H19.3736H19.3831ZM19.8488 10.6093L19.9534 10.4192L22.1206 11.6739L21.864 12.1206L20.191 11.1511L21.3507 13.0046L21.1796 13.2993L21.0845 13.4609L18.9173 12.2062L19.174 11.7594L20.7899 12.691L19.6682 10.8945L19.6873 10.8659L19.8393 10.5998L19.8488 10.6093Z" fill="#FAF9F6"/>
<path d="M25.7223 7.85327L25.6557 8.10041H24.7337V10.3627H24.2109V7.85327H25.7223Z" fill="#FAF9F6"/>
<path d="M27.0574 7.80542C27.3331 7.80542 27.5517 7.85295 27.7133 7.948C27.8749 8.04305 27.9985 8.18563 28.065 8.38524C28.141 8.58486 28.1696 8.82249 28.1696 9.11716C28.1696 9.41182 28.1315 9.64945 28.065 9.84907C27.989 10.0392 27.8749 10.1913 27.7133 10.2863C27.5517 10.3814 27.3331 10.4289 27.0574 10.4289C26.7818 10.4289 26.5727 10.3814 26.4016 10.2863C26.2305 10.1913 26.1164 10.0487 26.0499 9.84907C25.9738 9.65896 25.9453 9.41182 25.9453 9.11716C25.9453 8.82249 25.9833 8.58486 26.0499 8.38524C26.1164 8.18563 26.24 8.04305 26.4016 7.948C26.5632 7.85295 26.7818 7.80542 27.0574 7.80542ZM27.6183 10.0772C27.6848 10.0107 27.7133 9.87758 27.7228 9.66846C27.7228 9.46885 27.7133 9.27875 27.6848 9.09814C27.6468 8.77496 27.5802 8.55634 27.4757 8.43277C27.3521 8.29019 27.2095 8.20464 27.0574 8.16662C26.9529 8.13811 26.8388 8.1191 26.7343 8.10959C26.6297 8.10008 26.5441 8.10959 26.4871 8.14761C26.4206 8.21415 26.3921 8.34722 26.3826 8.55634C26.3731 8.76546 26.3826 8.95556 26.4206 9.12666C26.4586 9.44984 26.5346 9.66846 26.6297 9.79203C26.7533 9.93461 26.8958 10.0202 27.0479 10.0582C27.1525 10.0962 27.2571 10.1152 27.3616 10.1247C27.4662 10.1342 27.5517 10.1247 27.6087 10.0772H27.6183Z" fill="#FAF9F6"/>
<path d="M30.3548 10.0677L30.3739 10.1152C30.2028 10.3243 29.9271 10.4289 29.5184 10.4289C29.1096 10.4289 29.0241 10.3814 28.8625 10.2863C28.7009 10.1913 28.5869 10.0487 28.5108 9.84907C28.4348 9.65896 28.4062 9.41182 28.4062 9.11716C28.4062 8.82249 28.4443 8.58486 28.5108 8.38524C28.5773 8.18563 28.7009 8.04305 28.8625 7.948C29.0241 7.85295 29.2427 7.80542 29.5184 7.80542C29.794 7.80542 30.1837 7.90047 30.3548 8.10008L30.0317 8.50881C29.9651 8.43277 29.8891 8.36623 29.794 8.2997C29.699 8.23316 29.6039 8.19514 29.5279 8.16662C29.4233 8.13811 29.3093 8.1191 29.2047 8.10959C29.1001 8.10008 29.0146 8.10959 28.9576 8.14761C28.891 8.21415 28.8625 8.34722 28.853 8.55634C28.8435 8.76546 28.853 8.95557 28.891 9.13617C28.929 9.45935 29.0051 9.67797 29.1001 9.80154C29.2237 9.94412 29.3663 10.0297 29.5184 10.0677C29.6229 10.0962 29.7465 10.1152 29.8891 10.1247C30.0317 10.1247 30.1837 10.1247 30.3548 10.0772V10.0677Z" fill="#FAF9F6"/>
<path d="M32.322 7.85327H32.6547L31.2289 10.3627H30.8202L31.4285 9.29808L30.6016 7.85327H31.1434L31.7327 8.89886L32.322 7.85327Z" fill="#FAF9F6"/>
<path d="M34.9455 10.1631H35.1071V10.5718H34.936L34.8599 10.3627H33.1299L33.0539 10.5718H32.8828V10.1631H33.1585L33.5197 7.85327H34.9455V10.1631ZM33.5672 10.1631H34.4322V8.10041H33.8619L33.5672 10.1631Z" fill="#FAF9F6"/>
<path d="M36.7886 10.372L36.6175 9.77312H35.8475L35.6764 10.372H35.3438L36.0567 7.86255H36.608L37.3209 10.372H36.7791H36.7886ZM35.9141 9.59252H36.5699L36.2373 8.44237L35.9141 9.59252Z" fill="#FAF9F6"/>
<path d="M38.3436 7.86278C38.6383 7.86278 38.8569 7.91981 38.99 8.03387C39.1231 8.14794 39.1896 8.29052 39.1991 8.48062C39.1991 8.58518 39.1801 8.68974 39.1421 8.7943C39.1041 8.89886 39.0185 8.9749 38.914 9.04144C38.8094 9.10798 38.6668 9.13649 38.4862 9.13649H38.0775V10.3627H37.5547V7.85327H38.3531L38.3436 7.86278ZM38.6953 8.52815C38.7048 8.40458 38.6763 8.30002 38.6003 8.22398C38.5242 8.14794 38.4387 8.10992 38.3341 8.10992H38.1155C38.0775 8.10992 38.0585 8.10992 38.0585 8.10992V8.95589C38.2296 8.95589 38.3817 8.91787 38.4957 8.83232C38.6098 8.74677 38.6763 8.65172 38.6858 8.51864L38.6953 8.52815Z" fill="#FAF9F6"/>
<path d="M41.3939 10.0677L41.4129 10.1152C41.2418 10.3243 40.9662 10.4289 40.5574 10.4289C40.1487 10.4289 40.0632 10.3814 39.9016 10.2863C39.74 10.1913 39.6259 10.0487 39.5499 9.84907C39.4738 9.65896 39.4453 9.41182 39.4453 9.11716C39.4453 8.82249 39.4833 8.58486 39.5499 8.38524C39.6164 8.18563 39.74 8.04305 39.9016 7.948C40.0632 7.85295 40.2818 7.80542 40.5574 7.80542C40.8331 7.80542 41.2228 7.90047 41.3939 8.10008L41.0707 8.50881C41.0042 8.43277 40.9281 8.36623 40.8331 8.2997C40.738 8.23316 40.643 8.19514 40.5669 8.16662C40.4624 8.13811 40.3483 8.1191 40.2438 8.10959C40.1392 8.10008 40.0537 8.10959 39.9966 8.14761C39.9301 8.21415 39.9016 8.34722 39.8921 8.55634C39.8826 8.76546 39.8921 8.95557 39.9301 9.13617C39.9681 9.45935 40.0441 9.67797 40.1392 9.80154C40.2628 9.94412 40.4053 10.0297 40.5574 10.0677C40.662 10.0962 40.7856 10.1152 40.9281 10.1247C41.0707 10.1247 41.2228 10.1247 41.3939 10.0772V10.0677Z" fill="#FAF9F6"/>
<path d="M43.4215 7.86255L43.355 8.10969H42.7847V10.372H42.2619V8.10969H41.6915L41.625 7.86255H43.412H43.4215Z" fill="#FAF9F6"/>
<path d="M45.0345 9.02197C45.1866 9.08851 45.3007 9.18356 45.3672 9.30713C45.4337 9.4307 45.4718 9.55427 45.4718 9.69685C45.4718 9.89646 45.3957 10.0676 45.2246 10.1911C45.0535 10.3147 44.8159 10.3812 44.4927 10.3812H43.6562V7.87183H44.4452C44.7399 7.87183 44.9585 7.92886 45.0916 8.04292C45.2246 8.15699 45.3007 8.29957 45.3007 8.48967C45.3007 8.59423 45.2817 8.69879 45.2436 8.79384C45.1961 8.8889 45.1296 8.97445 45.025 9.04098L45.0345 9.02197ZM44.1695 8.10946V8.95543C44.3406 8.95543 44.4927 8.91741 44.6068 8.83187C44.7208 8.74632 44.7874 8.65126 44.8064 8.51819C44.8159 8.39462 44.7874 8.29006 44.7113 8.21402C44.6353 8.13798 44.5498 8.09995 44.4547 8.09995H44.2361C44.1885 8.09995 44.1695 8.09995 44.179 8.09995L44.1695 8.10946ZM44.5117 10.1151C44.6353 10.1151 44.7399 10.0676 44.8254 9.98201C44.911 9.89646 44.949 9.7824 44.9395 9.63031C44.9205 9.48773 44.8349 9.36416 44.7018 9.27862C44.5688 9.18356 44.3882 9.13604 44.179 9.13604V10.1151H44.5117Z" fill="#FAF9F6"/>
<path d="M47.2749 10.1155L47.3414 10.3627H45.6875V7.85327H47.3414L47.2749 8.10041H46.2103V8.94638H47.1228L47.0563 9.12699H46.2103V10.106H47.2749V10.1155Z" fill="#FAF9F6"/>
<path d="M48.9676 7.85327H49.4904V10.3627H48.9676V9.13649H48.0931V10.3627H47.5703V7.85327H48.0931V8.95589H48.9676V7.85327Z" fill="#FAF9F6"/>
<path d="M51.116 7.85327H51.6388V10.3627H51.116V9.13649H50.2415V10.3627H49.7188V7.85327H50.2415V8.95589H51.116V7.85327Z" fill="#FAF9F6"/>
<path d="M52.8524 8.45211C53.0235 8.48062 53.147 8.55667 53.2326 8.68024C53.3086 8.8038 53.3656 8.93688 53.3847 9.08896C53.4037 9.24105 53.4227 9.38363 53.4227 9.49769C53.4227 9.6783 53.3752 9.8684 53.2706 10.0585C53.166 10.2486 53.0235 10.3627 52.8429 10.4007C52.7668 10.4102 52.6718 10.4197 52.5672 10.4197C52.4626 10.4197 52.3581 10.4197 52.2535 10.4007C52.149 10.4007 52.0254 10.3817 51.8828 10.3627V7.85327H52.3581V8.6137C52.5577 8.48062 52.7193 8.42359 52.8619 8.4426L52.8524 8.45211ZM52.9474 9.47868V9.40264C52.9474 9.29808 52.9474 9.18402 52.9474 9.06995C52.9474 8.95589 52.9189 8.85133 52.8714 8.76578C52.8238 8.68023 52.7573 8.64221 52.6527 8.64221C52.5577 8.64221 52.4531 8.68024 52.3581 8.72776V10.2391C52.4246 10.2581 52.4817 10.2771 52.5292 10.2771C52.6052 10.2771 52.6813 10.2296 52.7478 10.1346C52.8143 10.0395 52.8619 9.92543 52.8999 9.80186C52.9379 9.6783 52.9569 9.56423 52.9569 9.47868H52.9474ZM53.6793 7.85327H54.1546V10.3627H53.6793V7.85327Z" fill="#FAF9F6"/>
<path d="M56.2207 7.86243H56.4393V10.3718H55.9166V8.44225L54.89 10.3718H54.3672V7.86243H54.89V9.73498L55.8785 7.86243H56.2112H56.2207ZM56.0401 7.43469C55.9546 7.51073 55.8405 7.56776 55.6979 7.59628C55.5554 7.6343 55.3938 7.6438 55.2132 7.61529C55.0611 7.59628 54.928 7.56776 54.8234 7.52023L55.004 7.21606C55.2037 7.34914 55.4033 7.41568 55.5839 7.42518C55.7645 7.42518 55.9166 7.41568 56.0211 7.37765L56.0401 7.42518V7.43469Z" fill="#FAF9F6"/>
<path d="M60.7541 11.674L60.9252 11.9687L58.0355 11.9877L57.8359 11.636H59.0621L59.8986 10.1912L60.1647 10.6569L59.5564 11.693H60.7636L60.7541 11.674Z" fill="#FAF9F6"/>
<path d="M61.73 13.3754L61.9961 13.8316L59.8194 15.0863L59.5533 14.6301L60.6179 14.0122L60.1806 13.2518L59.116 13.8697L58.8594 13.4229L61.0361 12.1682L61.2927 12.615L60.3422 13.1663L60.7795 13.9267L61.73 13.3754Z" fill="#FAF9F6"/>
<path d="M63.0362 15.6284L63.1408 15.8185L60.9736 17.0732L60.7169 16.6265L62.3899 15.6569L60.2036 15.7425L60.0326 15.4478L59.9375 15.2862L62.1047 14.0315L62.3614 14.4782L60.7455 15.4098L62.8556 15.3337L62.8747 15.3622L63.0267 15.6284H63.0362Z" fill="#FAF9F6"/>
<path d="M62.9378 17.7858C62.9568 17.9474 62.9378 18.09 62.8617 18.2136C62.7857 18.3371 62.6906 18.4322 62.5766 18.4987C62.4055 18.6033 62.2154 18.6128 62.0348 18.5367C61.8447 18.4607 61.6736 18.2801 61.512 17.9949L61.3504 17.7193L61.0938 17.2725L63.261 16.0178L63.4701 16.379L63.5271 16.4741L63.6602 16.7117C63.8123 16.9684 63.8693 17.187 63.8408 17.3581C63.8123 17.5292 63.7172 17.6622 63.5651 17.7668C63.4796 17.8238 63.375 17.8619 63.2705 17.8714C63.1659 17.8809 63.0614 17.8619 62.9568 17.8048L62.9378 17.7858ZM61.7306 17.8809C61.7876 17.9854 61.8827 18.052 61.9968 18.09C62.1203 18.1185 62.2344 18.09 62.358 18.0139C62.472 17.9189 62.5291 17.7953 62.5481 17.6337C62.5671 17.4721 62.51 17.2915 62.4055 17.1109L61.5595 17.5957C61.607 17.6813 61.6641 17.7763 61.7306 17.8809ZM63.299 16.5881L62.5671 17.0159C62.6526 17.168 62.7572 17.2725 62.8903 17.3296C63.0233 17.3866 63.1374 17.3961 63.261 17.3486C63.375 17.2915 63.4511 17.2155 63.4796 17.1109C63.5081 17.0064 63.4986 16.9208 63.4511 16.8258C63.4035 16.7402 63.3655 16.6737 63.3465 16.6357C63.3275 16.5976 63.318 16.5786 63.318 16.5786L63.299 16.5881Z" fill="#FAF9F6"/>
<path d="M63.1169 20.2858L62.9363 20.4664L62.1094 19.0311L64.2861 17.7764L64.4097 17.9855L64.5522 18.2326L65.1226 19.2117L64.8754 19.2782L64.3431 18.3562L63.6017 18.7839L64.058 19.5729L63.8679 19.6014L63.4496 18.8695L62.6037 19.3638L63.1359 20.2858H63.1169Z" fill="#FAF9F6"/>
<path d="M65.615 20.0958C65.7671 20.3524 65.8241 20.571 65.7956 20.7421C65.7671 20.9132 65.672 21.0463 65.5104 21.1413C65.4154 21.1984 65.3203 21.2364 65.2063 21.2459C65.0922 21.2554 64.9877 21.2364 64.8736 21.1699C64.7595 21.1128 64.6645 20.9988 64.5694 20.8467C64.4649 20.6661 64.3983 20.552 64.3603 20.495L63.2957 21.1128L63.0391 20.6661L65.2063 19.4114L65.4154 19.7631L65.4724 19.8581L65.6055 20.0958H65.615ZM65.2158 20.7326C65.3298 20.6851 65.4059 20.5995 65.4344 20.5045C65.4629 20.4094 65.4534 20.3049 65.4059 20.2193C65.3584 20.1338 65.3203 20.0672 65.3013 20.0292C65.2823 19.9912 65.2728 19.9722 65.2728 19.9817L64.5409 20.4094C64.6265 20.5615 64.731 20.6661 64.8641 20.7231C64.9972 20.7801 65.1112 20.7896 65.2253 20.7326H65.2158Z" fill="#FAF9F6"/>
<path d="M65.2353 23.8314L65.2068 23.8694C64.9407 23.8314 64.7125 23.6318 64.5129 23.2896C64.3798 23.052 64.3038 22.8429 64.3133 22.6527C64.3133 22.4626 64.3798 22.2915 64.5129 22.13C64.646 21.9684 64.8361 21.8163 65.0927 21.6737C65.3494 21.5311 65.5775 21.4361 65.7771 21.398C65.9862 21.36 66.1668 21.398 66.3284 21.4836C66.49 21.5786 66.6421 21.7402 66.7847 21.9779C66.9748 22.3106 67.0318 22.5957 66.9463 22.8429L66.433 22.7668C66.471 22.6718 66.49 22.5672 66.49 22.4531C66.49 22.3391 66.49 22.2345 66.471 22.1585C66.4425 22.0539 66.4045 21.9493 66.3665 21.8543C66.3284 21.7592 66.2714 21.6927 66.2049 21.6642C66.1098 21.6452 65.9767 21.6737 65.8056 21.7783C65.6345 21.8828 65.4634 21.9874 65.3209 22.0919C65.0642 22.2915 64.9026 22.4626 64.8456 22.6052C64.7791 22.7858 64.7791 22.9474 64.8266 23.0995C64.8551 23.2041 64.8931 23.3181 64.9597 23.4512C65.0262 23.5843 65.1213 23.7078 65.2353 23.8314Z" fill="#FAF9F6"/>
<path d="M68.169 24.5349L68.2736 24.725L66.1064 25.9797L65.8497 25.5329L67.5227 24.5634L65.3365 24.6489L65.1654 24.3543L65.0703 24.1927L67.2375 22.938L67.4942 23.3847L65.8783 24.3163L67.9884 24.2402L68.0075 24.2687L68.1595 24.5349H68.169Z" fill="#FAF9F6"/>
<path d="M69.2939 26.4739L69.0468 26.5405L68.7616 26.0462L66.8035 27.1773L66.5469 26.7306L68.505 25.5994L68.2198 25.1052L68.4004 24.9246L68.7141 25.4759L68.9707 25.9226L69.2844 26.4739H69.2939Z" fill="#FAF9F6"/>
<path d="M68.2419 29.173L68.0613 29.3536L67.2344 27.9183L69.4111 26.6636L69.5347 26.8727L69.6772 27.1198L70.2476 28.0989L70.0004 28.1654L69.4681 27.2434L68.7267 27.6711L69.183 28.4601L68.9929 28.4886L68.5746 27.7567L67.7287 28.251L68.261 29.173H68.2419Z" fill="#FAF9F6"/>
<path d="M71.247 29.8482L70.9999 29.9147L70.7147 29.4205L68.7566 30.5516L68.5 30.1048L70.4581 28.9737L70.1729 28.4794L70.3535 28.2988L70.6672 28.8501L70.9239 29.2969L71.2375 29.8482H71.247Z" fill="#FAF9F6"/>
<path d="M56.3247 68.2779H23.6739L23.5979 68.1449L7.34375 39.9996L23.6739 11.7212H56.3247L56.4008 11.8543L72.6549 39.9996L56.3247 68.2779ZM23.9686 67.7551H56.0206L72.0466 39.9996L56.0206 12.244H23.9686L7.94259 39.9996L23.9686 67.7551Z" fill="#FAF9F6"/>
<path d="M48.7673 71.6144L48.7578 71.0631L57.8069 70.9205L75.1636 40.7981L75.6389 41.0833L58.1301 71.4718L48.7673 71.6144Z" fill="#FAF9F6"/>
<path d="M31.6576 71.5098L21.8291 71.4813L4.32031 41.0833L4.80509 40.7981L22.1523 70.9205L31.6576 70.9585V71.5098Z" fill="#FAF9F6"/>
<path d="M46.7434 60.5036C46.5628 60.6272 46.6103 58.2984 49.0437 56.3118C49.0437 56.3118 50.3745 59.0018 47.4088 60.9504C47.1902 61.1025 48.0266 59.8002 48.4734 58.3744C48.7395 57.4239 47.9221 59.7147 46.7339 60.4941L46.7434 60.5036Z" fill="#FAF9F6"/>
<path d="M48.1683 61.6915C48.0162 61.4729 50.8678 61.4919 53.3202 64.4385C53.3202 64.4385 50.0504 66.102 47.617 62.5185C47.4269 62.2523 49.0238 63.2504 50.7823 63.7827C51.9514 64.0868 49.1378 63.1268 48.1588 61.6915H48.1683Z" fill="#FAF9F6"/>
<path d="M51.3364 60.1138C51.1558 59.9522 53.6177 59.3344 56.4123 61.3115C56.4123 61.3115 53.9694 63.4882 51.0608 60.9503C50.8327 60.7602 52.4391 61.264 54.074 61.321C55.1576 61.321 52.5056 61.1309 51.3364 60.1138Z" fill="#FAF9F6"/>
<path d="M54.3055 58.5735C53.7161 58.621 56.235 60.8548 58.6969 57.8036C58.6114 57.5945 56.8054 56.1021 54.6191 58.1553C54.6191 58.1553 56.6153 57.8891 56.8529 58.1172C56.8529 58.1172 55.4271 58.4785 54.3055 58.5735Z" fill="#FAF9F6"/>
<path d="M50.6216 58.935C50.3744 58.7735 50.3459 57.2716 50.441 56.9769C50.441 56.9769 50.7737 55.7127 51.8478 54.9048C51.8478 54.9048 53.3496 57.0055 51.5626 59.0871C51.5626 59.0871 51.8953 57.9655 51.382 57.129C51.382 57.129 51.287 58.6974 50.6216 58.9255V58.935Z" fill="#FAF9F6"/>
<path d="M53.6796 56.7293C53.6796 56.7293 54.2119 55.6743 54.1644 54.5431C54.1169 53.412 54.1359 54.4576 54.1359 54.4576C54.1359 54.4576 54.7537 55.9974 54.5351 56.3967C54.5351 56.3967 55.7708 55.0469 54.364 53.0508C54.364 53.0508 52.577 54.4386 53.6796 56.7293Z" fill="#FAF9F6"/>
<path d="M56.6423 55.3515C56.6043 55.3705 57.859 53.6691 59.6745 54.2679C59.6745 54.2679 59.3038 56.5112 56.8134 56.264C56.8134 56.264 57.1556 55.5416 58.1061 55.2089C58.1061 55.2089 58.0016 54.7432 56.6328 55.3515H56.6423Z" fill="#FAF9F6"/>
<path d="M55.8661 53.4887C55.8661 53.4887 56.3128 52.6998 55.695 51.5306C55.695 51.5306 56.3223 51.6637 56.4934 52.8994C56.4934 52.8994 57.3109 51.1124 55.0961 50.314C55.0961 50.314 55.0106 52.5097 55.8661 53.4887Z" fill="#FAF9F6"/>
<path d="M57.7117 52.4904C57.7117 52.4904 57.5976 51.3307 60.1356 50.5513C60.1356 50.5513 60.5538 52.8421 57.8923 53.3744C57.8923 53.3744 57.8258 53.0227 58.4531 52.4713C58.4531 52.4713 58.9284 52.2337 59.052 51.8915C59.052 51.8915 58.0634 52.1387 57.7117 52.4904Z" fill="#FAF9F6"/>
<path d="M58.5417 50.1711C58.5417 50.1711 60.5568 49.8955 59.9865 47.4336C59.9865 47.4336 58.5227 48.099 58.3516 49.6673C58.3516 49.6673 58.9029 48.7929 59.3211 48.8309C59.3211 48.8309 59.3211 49.8384 58.5512 50.1806L58.5417 50.1711Z" fill="#FAF9F6"/>
<path d="M57.3123 49.7811C57.3123 49.8286 57.3408 47.1957 55.1641 47.5283C55.1641 47.5283 55.5728 49.1252 56.6279 49.9807C56.6279 49.9807 56.6944 49.515 56.3807 48.783C56.3807 48.783 57.2172 49.2678 57.3123 49.7811Z" fill="#FAF9F6"/>
<path d="M58.4735 47.4332C58.4735 47.4332 60.2414 46.6347 59.1388 44.7336C59.1388 44.7336 57.9126 45.3515 57.9792 47.0434C57.9792 47.0434 58.1503 46.5397 58.7301 46.0454C58.7301 46.0454 59.0913 46.9579 58.483 47.4237L58.4735 47.4332Z" fill="#FAF9F6"/>
<path d="M57.5616 45.0001C57.5616 45.0001 58.9304 43.4602 55.9172 42.3196C55.9172 42.3196 54.9191 43.3842 56.8867 44.7149C56.8867 44.7149 57.0768 44.2587 56.7632 43.8214C56.7632 43.8214 57.6091 44.1541 57.5521 45.0001H57.5616Z" fill="#FAF9F6"/>
<path d="M57.0962 46.3877C57.1913 46.4542 57.0202 45.4086 55.0051 44.6482C55.0051 44.6482 54.4823 46.1215 56.754 46.996C56.754 46.996 56.7921 46.5207 55.8796 45.9029C55.8796 45.9029 56.4784 45.9314 57.0867 46.3972L57.0962 46.3877Z" fill="#FAF9F6"/>
<path d="M33.2777 60.5034C33.4583 60.6269 33.4107 58.2981 30.9774 56.3115C30.9774 56.3115 29.6466 59.0015 32.6123 60.9501C32.8309 61.1022 31.9945 59.8 31.5477 58.3742C31.2816 57.4236 32.099 59.7144 33.2872 60.4939L33.2777 60.5034Z" fill="#FAF9F6"/>
<path d="M31.8472 61.6912C31.9993 61.4726 29.1477 61.4916 26.6953 64.4383C26.6953 64.4383 29.9651 66.1017 32.3985 62.5182C32.5886 62.2521 30.9917 63.2501 29.2332 63.7824C28.0641 64.0866 30.8777 63.1266 31.8567 61.6912H31.8472Z" fill="#FAF9F6"/>
<path d="M28.6852 60.1136C28.8658 59.952 26.4039 59.3341 23.6094 61.3112C23.6094 61.3112 26.0522 63.488 28.9609 60.95C29.189 60.7599 27.5826 61.2637 25.9477 61.3207C24.8641 61.3207 27.5161 61.1306 28.6852 60.1136Z" fill="#FAF9F6"/>
<path d="M25.7118 58.5733C26.3011 58.6208 23.7822 60.8545 21.3203 57.8033C21.4059 57.5942 23.2119 56.1019 25.3981 58.155C25.3981 58.155 23.402 57.8889 23.1643 58.117C23.1643 58.117 24.5901 58.4782 25.7118 58.5733Z" fill="#FAF9F6"/>
<path d="M29.3947 58.9348C29.6418 58.7732 29.6704 57.2714 29.5753 56.9767C29.5753 56.9767 29.2426 55.7125 28.1685 54.9045C28.1685 54.9045 26.6667 57.0052 28.4537 59.0869C28.4537 59.0869 28.121 57.9653 28.6343 57.1288C28.6343 57.1288 28.7293 58.6972 29.3947 58.9253V58.9348Z" fill="#FAF9F6"/>
<path d="M26.34 56.7293C26.34 56.7293 25.8077 55.6743 25.8552 54.5431C25.9027 53.412 25.8932 54.4576 25.8932 54.4576C25.8932 54.4576 25.2754 55.9974 25.494 56.3967C25.494 56.3967 24.2583 55.0469 25.6651 53.0508C25.6651 53.0508 27.4521 54.4386 26.3495 56.7293H26.34Z" fill="#FAF9F6"/>
<path d="M23.376 55.3515C23.414 55.3705 22.1593 53.6691 20.3438 54.2679C20.3438 54.2679 20.7145 56.5112 23.2049 56.264C23.2049 56.264 22.8627 55.5416 21.9121 55.2089C21.9121 55.2089 22.0167 54.7432 23.3855 55.3515H23.376Z" fill="#FAF9F6"/>
<path d="M24.1505 53.4885C24.1505 53.4885 23.7038 52.6996 24.3216 51.5304C24.3216 51.5304 23.6943 51.6635 23.5232 52.8992C23.5232 52.8992 22.7057 51.1122 24.9109 50.3137C24.9109 50.3137 24.9965 52.5095 24.141 53.4885H24.1505Z" fill="#FAF9F6"/>
<path d="M22.315 52.4901C22.315 52.4901 22.429 51.3305 19.8911 50.551C19.8911 50.551 19.4729 52.8418 22.1344 53.3741C22.1344 53.3741 22.2009 53.0224 21.5735 52.4711C21.5735 52.4711 21.0983 52.2335 20.9747 51.8913C20.9747 51.8913 21.9633 52.1384 22.315 52.4901Z" fill="#FAF9F6"/>
<path d="M21.4762 50.1711C21.4762 50.1711 19.461 49.8955 20.0314 47.4336C20.0314 47.4336 21.4952 48.099 21.6663 49.6673C21.6663 49.6673 21.115 48.7929 20.6967 48.8309C20.6967 48.8309 20.6967 49.8384 21.4667 50.1806L21.4762 50.1711Z" fill="#FAF9F6"/>
<path d="M22.7031 49.7809C22.7031 49.8284 22.6746 47.1954 24.8513 47.5281C24.8513 47.5281 24.4426 49.125 23.3875 49.9805C23.3875 49.9805 23.321 49.5147 23.6347 48.7828C23.6347 48.7828 22.7982 49.2676 22.7031 49.7809Z" fill="#FAF9F6"/>
<path d="M21.543 47.4332C21.543 47.4332 19.775 46.6347 20.8776 44.7336C20.8776 44.7336 22.1038 45.3515 22.0373 47.0434C22.0373 47.0434 21.8662 46.5397 21.2864 46.0454C21.2864 46.0454 20.9251 46.9579 21.5335 47.4237L21.543 47.4332Z" fill="#FAF9F6"/>
<path d="M22.4586 44.9998C22.4586 44.9998 21.0898 43.46 24.103 42.3193C24.103 42.3193 25.1011 43.3839 23.1335 44.7147C23.1335 44.7147 22.9434 44.2584 23.2571 43.8212C23.2571 43.8212 22.4111 44.1539 22.4681 44.9998H22.4586Z" fill="#FAF9F6"/>
<path d="M22.9181 46.3874C22.8231 46.454 23.0037 45.4084 25.0093 44.6479C25.0093 44.6479 25.5321 46.1213 23.2603 46.9958C23.2603 46.9958 23.2223 46.5205 24.1348 45.9026C24.1348 45.9026 23.536 45.9312 22.9276 46.3969L22.9181 46.3874Z" fill="#FAF9F6"/>
<path d="M37.3864 63.9539H35.2382L34.1641 62.1004L35.2382 60.2468H37.3864L38.4605 62.1004L37.3864 63.9539ZM35.4853 63.5452H37.1582L37.9947 62.1004L37.1582 60.6556H35.4853L34.6488 62.1004L35.4853 63.5452Z" fill="#FAF9F6"/>
<path d="M41.2614 66.71H39.1132L38.0391 64.8565L39.1132 63.0029H41.2614L42.3355 64.8565L41.2614 66.71ZM39.3603 66.2918H41.0332L41.8697 64.847L41.0332 63.4022H39.3603L38.5238 64.847L39.3603 66.2918Z" fill="#FAF9F6"/>
<path d="M45.2536 63.9539H43.1054L42.0312 62.1004L43.1054 60.2468H45.2536L46.3277 62.1004L45.2536 63.9539ZM43.3525 63.5452H45.0254L45.8619 62.1004L45.0254 60.6556H43.3525L42.516 62.1004L43.3525 63.5452Z" fill="#FAF9F6"/>
<path d="M62.7418 27.5668C62.7418 27.5668 60.489 23.2039 52.0958 23.9548C52.0958 23.9548 46.9819 24.8293 41.9441 28.0516C36.9063 31.2644 35.0717 32.2625 35.0717 32.2625C35.0717 32.2625 25.2432 38.9162 19.9678 35.1236C14.6923 31.331 19.2644 28.3653 19.2644 28.3653C19.2644 28.3653 25.4333 24.1734 32.3817 28.8501C32.3817 28.8501 29.4161 31.0553 28.0378 31.8062C26.6595 32.5571 24.5684 32.8613 24.5684 32.8613C24.5684 32.8613 28.304 32.7282 30.3666 31.4925C32.4293 30.2569 34.5109 29.4774 34.5109 29.4774C34.5109 29.4774 35.8892 28.7265 36.7067 28.812C36.7067 28.812 30.6328 22.2343 20.2149 25.3996C20.2149 25.3996 11.2419 29.6865 18.2188 35.2947C25.1957 40.9028 37.9709 31.5781 37.9709 31.5781L44.3965 27.852C44.3965 27.852 50.8316 24.259 55.6508 24.9624C60.47 25.6658 61.2399 27.7379 61.2399 27.7379C61.2399 27.7379 63.4737 31.407 57.6944 33.4792C51.9152 35.5513 46.6302 31.5211 46.6302 31.5211C46.6302 31.5211 49.5674 28.6124 54.7003 28.2037C54.7003 28.2037 53.9779 27.6144 48.056 28.831C48.056 28.831 45.4135 30.1618 41.9441 31.2169C41.9441 31.2169 47.7043 35.4658 50.0522 35.846C50.0522 35.846 55.955 37.5094 60.5365 34.5533C65.1181 31.5876 62.7513 27.5763 62.7513 27.5763L62.7418 27.5668Z" fill="#FAF9F6"/>
<path d="M39.5078 58.1074L40.1732 60.5883L40.791 58.1074H39.5078Z" fill="#FAF9F6"/>
<path d="M35.8438 43.983C35.8438 43.983 42.7922 50.3611 47.0886 46.9487C47.1741 46.8726 47.2882 46.4639 47.3642 46.3974C47.7634 44.4678 48.2197 42.6428 48.1912 41.0269C48.1151 41.0744 47.849 41.2265 47.7634 41.2645C45.9099 42.5002 40.1782 45.5229 35.8438 43.983Z" fill="#FAF9F6"/>
<path d="M37.2048 40.637C37.2048 40.637 45.2083 42.5856 47.7652 41.407C47.8508 41.3499 47.9839 41.2168 48.0599 41.1693C47.9649 39.9241 47.6132 38.8405 47.0999 37.8139C46.8147 37.2436 46.3965 36.6733 45.9877 36.217C45.4935 37.6714 43.0981 40.6941 37.1953 40.637H37.2048Z" fill="#FAF9F6"/>
<path d="M45.7453 51.739C44.424 52.642 41.6009 54.3815 39.9375 54.0678C39.9375 54.0678 41.7055 56.3681 42.8271 56.8624C42.8746 56.8148 42.9222 56.7768 42.9697 56.7198C44.1294 55.1229 45.0324 53.4119 45.7453 51.7295V51.739Z" fill="#FAF9F6"/>
<path d="M38.2829 49.5627C38.2829 49.5627 43.4253 52.5188 45.7161 51.7774C46.6381 50.0474 46.9043 48.2794 47.37 46.6825C47.294 46.7491 47.4651 46.616 47.3795 46.6825C45.6686 48.1369 41.6383 50.7984 38.2734 49.5722L38.2829 49.5627Z" fill="#FAF9F6"/>
<path d="M40.0064 33.1843C35.3392 33.1843 31.6797 36.9674 31.6797 41.7867C31.6797 46.6059 32.0599 44.9234 32.9154 48.2218C34.056 52.6227 35.4818 55.6549 37.1453 57.2518C38.0293 58.0978 38.9893 58.5255 39.9969 58.5255H40.0349C41.0424 58.5255 42.0025 58.0978 42.8865 57.2518C46.9928 53.3451 48.3425 41.8912 48.3425 41.7867C48.3425 36.9579 44.683 33.1843 40.0159 33.1843H40.0064ZM42.3542 56.7956C41.6413 57.461 40.8904 57.8031 40.1204 57.8317C40.0824 57.8317 40.0444 57.8317 40.0064 57.8317C39.9683 57.8317 39.9208 57.8317 39.8828 57.8317C39.1224 57.8031 38.3905 57.4705 37.6966 56.8336C33.7804 53.2501 32.3641 41.8912 32.3641 41.7962C32.3641 37.3572 35.7195 33.8782 40.0064 33.8782C44.2933 33.8782 47.6486 37.3572 47.6486 41.7962C47.6296 42.5946 46.0708 53.3451 42.3637 56.8051L42.3542 56.7956Z" fill="#FAF9F6"/>
<path d="M43.2279 22.1587H42.2108C43.1234 23.2518 43.2659 24.0217 43.1424 24.554C42.8097 25.9418 40.3763 26.7593 39.4163 26.7403C37.8669 26.5692 35.9753 26.1224 35.6332 24.9438C35.405 24.1453 35.8898 23.1282 36.6027 22.1587H35.6141C34.9773 23.1472 34.5876 24.2118 34.8632 25.1624C35.2339 26.4646 36.7548 27.2631 39.3783 27.5387H39.4258H39.4733C39.6919 27.5862 43.3895 26.9684 43.9218 24.7346C44.1119 23.9457 43.8743 23.0902 43.2184 22.1587H43.2279Z" fill="#FAF9F6"/>
<path d="M47.3011 19.0594C47.3011 19.0214 47.3011 18.9739 47.2821 18.9454L47.111 18.1754L49.6775 17.5481L39.5733 16.2554L29.5547 17.5481L35.1248 18.9169V22.2437H43.8032V18.9834L46.4457 18.337L46.6073 19.088C46.6168 19.2686 46.7688 19.4111 46.9494 19.4111C47.13 19.4111 47.2916 19.2591 47.2916 19.0689L47.3011 19.0594ZM39.5733 16.6926L47.2726 17.6812L39.5733 19.5632L31.931 17.6812L39.5733 16.6926ZM43.3659 21.797H35.5621V19.0214L39.5733 20.01L43.3659 19.088V21.8065V21.797Z" fill="#FAF9F6"/>
<path d="M46.7969 19.4492C46.8919 21.4548 47.101 21.1507 47.1486 21.1697L48.1181 20.7324C48.0896 20.2192 47.3292 19.3066 47.3292 19.3066C47.1581 19.6013 46.8064 19.4492 46.8064 19.4492H46.7969Z" fill="#FAF9F6"/>
</svg>
